<?xml version="1.0" encoding="utf-8"?>
<!-- Generator: Adobe Illustrator 26.0.1, SVG Export Plug-In . SVG Version: 6.00 Build 0)  -->
<svg version="1.1" id="Layer_1" xmlns="http://www.w3.org/2000/svg" xmlns:xlink="http://www.w3.org/1999/xlink" x="0px" y="0px"
	 viewBox="0 0 500 500" style="enable-background:new 0 0 500 500;" xml:space="preserve">
<style type="text/css">
	.st0{fill:#00FFCC;}
	.st1{opacity:0.65;}
	.st2{fill:#FFFFFF;}
	.st3{fill:#E0E0E0;}
	.st4{fill:#EBEBEB;}
	.st5{fill:#FAFAFA;}
	.st6{opacity:0.1;fill:#FFFFFF;enable-background:new    ;}
	.st7{opacity:5.000000e-02;enable-background:new    ;}
	.st8{opacity:0.35;fill:#FFFFFF;enable-background:new    ;}
	.st9{opacity:0.2;fill:#FFFFFF;enable-background:new    ;}
	.st10{opacity:5.000000e-02;fill:#FFFFFF;enable-background:new    ;}
	.st11{opacity:0.5;fill:#FFFFFF;enable-background:new    ;}
	.st12{opacity:0.15;fill:#FFFFFF;enable-background:new    ;}
	.st13{opacity:0.25;enable-background:new    ;}
	.st14{opacity:0.1;enable-background:new    ;}
	.st15{fill:#FFA8A7;}
	.st16{fill:#263238;}
	.st17{fill:#37474F;}
	.st18{fill:#F0F0F0;}
	.st19{fill:#455A64;}
	.st20{fill:#F28F8F;}
	.st21{fill:#B16668;}
	.st22{opacity:0.2;enable-background:new    ;}
	.st23{display:none;fill:#FFFFFF;}
	.st24{display:none;fill:#00FFCC;}
	.st25{opacity:0.15;enable-background:new    ;}
	.st26{opacity:0.3;fill:#FFFFFF;enable-background:new    ;}
</style>
<g id="freepik--Plants--inject-8">
	<g id="freepik--plants--inject-8">
		<path class="st0" d="M43.3,377.8c1,3.1,1.8,6.2,2.3,9.4c1,6.1,0.3,27.3,0,33.5l0,0l1,0.4l0,0c1.1-6.2,1.3-28.3,0-34.5
			c-0.6-3.1-1.4-6.1-2.5-9c-0.9-3.2-2.4-6.3-4.2-9.1c-0.1-0.2-0.3,0.2-0.3,0.4C40.8,371.8,42.3,374.7,43.3,377.8z"/>
		<path class="st0" d="M42.3,374.4c-2.7-1.7-6.1-4.5-7.5-11.1s-3.2-12.4-2.7-13.8c0.6-1.4,6.9,4.9,10.1,11.4S44,371.1,42.3,374.4z"
			/>
		<path class="st0" d="M39.6,379.3c0.6-1-1.3-4.2-6.2-7.1s-11.9-4.7-12.5-4.1s4.5,6.8,9.9,9.3S39,380.3,39.6,379.3z"/>
		<path class="st0" d="M60.1,357.8c-0.7-0.6-7.5,5.7-9.9,12.1c-2.1,5.5-2.6,8.8-1.9,9.9l-0.1,0.2c-0.5,0.9-1,1.9-1.3,2.9
			c-0.6,2-1.2,4.3-0.5,6.3c0,0.1,0.2,0,0.2-0.1c0.5-1.9,0.7-3.8,1.2-5.6c0.4-1.2,0.8-2.3,1.4-3.4c1.5-0.1,4.6-2.6,7.2-7.7
			C59.3,366.7,60.9,358.4,60.1,357.8z"/>
		<path class="st0" d="M44.5,394.6c0.7-1-0.9-4.3-5.4-7.7s-11.4-5.9-12-5.3s3.8,7.2,8.9,10.2S43.9,395.5,44.5,394.6z"/>
		<path class="st0" d="M46.2,384.6c-0.2-0.8-0.6-1.5-1.2-2c-0.7-0.7-1.4-1.3-2.2-1.8c-1.7-1.1-3.5-2.1-5.4-2.8
			c-0.2-0.1-0.4,0.4-0.2,0.5c1.6,1.1,3.3,2.1,4.9,3.2c0.8,0.5,1.5,1.1,2.1,1.7c0.3,0.3,0.6,0.6,0.9,0.9s0.5,0.7,0.9,0.8
			C46.2,385,46.2,384.7,46.2,384.6z"/>
		<path class="st0" d="M45.4,394.5c-0.6-0.5-1.2-1-1.8-1.4c-0.6-0.4-1.3-0.7-2.1-0.9c-0.2,0-0.3,0.3-0.2,0.4
			c1.2,0.8,2.3,1.7,3.4,2.7c0.5,0.5,1,0.9,1.4,1.5c0.4,0.4,0.6,0.9,0.7,1.5c0.1,0.5,0.6,0.5,0.7,0C47.9,396.8,46.3,395.4,45.4,394.5
			z"/>
		<path class="st0" d="M47,403l0.7,0.8c1.8,0,6.7-2.9,9.8-7.2c3.7-5.1,4.8-10.4,4.5-11.2s-7.2,2.6-11.2,8.6
			C48.3,397.6,47,401.4,47,403z"/>
		<g class="st1">
			<path class="st2" d="M43.3,377.8c1,3.1,1.8,6.2,2.3,9.4c1,6.1,0.3,27.3,0,33.5l0,0l1,0.4l0,0c1.1-6.2,1.3-28.3,0-34.5
				c-0.6-3.1-1.4-6.1-2.5-9c-0.9-3.2-2.4-6.3-4.2-9.1c-0.1-0.2-0.3,0.2-0.3,0.4C40.8,371.8,42.3,374.7,43.3,377.8z"/>
			<path class="st2" d="M42.3,374.4c-2.7-1.7-6.1-4.5-7.5-11.1s-3.2-12.4-2.7-13.8c0.6-1.4,6.9,4.9,10.1,11.4S44,371.1,42.3,374.4z"
				/>
			<path class="st2" d="M39.6,379.3c0.6-1-1.3-4.2-6.2-7.1s-11.9-4.7-12.5-4.1s4.5,6.8,9.9,9.3S39,380.3,39.6,379.3z"/>
			<path class="st2" d="M60.1,357.8c-0.7-0.6-7.5,5.7-9.9,12.1c-2.1,5.5-2.6,8.8-1.9,9.9l-0.1,0.2c-0.5,0.9-1,1.9-1.3,2.9
				c-0.6,2-1.2,4.3-0.5,6.3c0,0.1,0.2,0,0.2-0.1c0.5-1.9,0.7-3.8,1.2-5.6c0.4-1.2,0.8-2.3,1.4-3.4c1.5-0.1,4.6-2.6,7.2-7.7
				C59.3,366.7,60.9,358.4,60.1,357.8z"/>
			<path class="st2" d="M44.5,394.6c0.7-1-0.9-4.3-5.4-7.7s-11.4-5.9-12-5.3s3.8,7.2,8.9,10.2S43.9,395.5,44.5,394.6z"/>
			<path class="st2" d="M46.2,384.6c-0.2-0.8-0.6-1.5-1.2-2c-0.7-0.7-1.4-1.3-2.2-1.8c-1.7-1.1-3.5-2.1-5.4-2.8
				c-0.2-0.1-0.4,0.4-0.2,0.5c1.6,1.1,3.3,2.1,4.9,3.2c0.8,0.5,1.5,1.1,2.1,1.7c0.3,0.3,0.6,0.6,0.9,0.9s0.5,0.7,0.9,0.8
				C46.2,385,46.2,384.7,46.2,384.6z"/>
			<path class="st2" d="M45.4,394.5c-0.6-0.5-1.2-1-1.8-1.4c-0.6-0.4-1.3-0.7-2.1-0.9c-0.2,0-0.3,0.3-0.2,0.4
				c1.2,0.8,2.3,1.7,3.4,2.7c0.5,0.5,1,0.9,1.4,1.5c0.4,0.4,0.6,0.9,0.7,1.5c0.1,0.5,0.6,0.5,0.7,0
				C47.9,396.8,46.3,395.4,45.4,394.5z"/>
			<path class="st2" d="M47,403l0.7,0.8c1.8,0,6.7-2.9,9.8-7.2c3.7-5.1,4.8-10.4,4.5-11.2s-7.2,2.6-11.2,8.6
				C48.3,397.6,47,401.4,47,403z"/>
		</g>
		<path class="st0" d="M28.5,399c-3.6-0.6-6.7-2.8-8.5-6c-2.8-4.4-5.8-8.1-5.8-9.3s6.4,1.6,10.5,5.4S28.8,396.1,28.5,399z"/>
		<path class="st0" d="M33.8,401.8c1,0.3,2.2-4.3,1.2-8.5s-3.2-7.2-3.7-7.4s-1.6,6.5-0.7,9.7S33.1,401.6,33.8,401.8z"/>
		<path class="st0" d="M39.3,410.3c1,0.5,3.3-4.3,3.3-9.2s-1.9-8.7-2.4-9s-3.2,6.8-3,10.6S38.7,409.9,39.3,410.3z"/>
		<path class="st0" d="M34.1,409c0.7-0.9-3.5-4.1-8.4-5s-8.9,0.1-9.3,0.6s4.3,4.2,9.8,5C30,410.2,33.7,409.6,34.1,409z"/>
		<path class="st0" d="M25.7,396.1c3.3,2.9,6.3,6.1,9,9.6c-0.1-0.2-0.2-0.4-0.2-0.6c-0.4-1-0.7-2.1-0.9-3.1c-0.3-1-0.4-2.1-0.2-3.1
			c0-0.2,0.2,0,0.3,0.1c0.4,1.1,0.8,2.2,1,3.3c0.3,1,0.6,1.9,0.9,2.8c0.5,1.3,1,2.5,1.6,3.8c0.7,1,1.5,2,2.2,3
			c-0.2-0.8-0.2-1.5-0.2-2.3c0-0.4,0-0.9,0.1-1.3c0-0.3,0.1-0.7,0.2-1c0.1-0.2,0.3,0,0.3,0.1c0.1,0.8,0.2,1.5,0.2,2.3
			c0.1,0.8,0.2,1.5,0.3,2.3c0.2,0.8,0.4,1.5,0.7,2.3l0.3,0.7c0.6,1,1.8,3.2,2.7,4.8l-0.8,1c-0.8-1.6-1.6-3.2-2.6-4.8s-2-3.2-2.7-4.2
			c-0.6-0.5-1.2-0.9-1.8-1.4c-0.7-0.5-1.4-0.9-2.2-1.2c-0.8-0.4-1.7-0.6-2.5-1c-0.1-0.1-0.3-0.4-0.1-0.4c0.9,0,1.8,0.2,2.7,0.6
			c0.8,0.3,1.5,0.7,2.3,1.2c-0.5-0.7-1.1-1.5-1.6-2.2c-2.9-3.8-6.3-7.2-9.1-11C25.4,396.1,25.6,395.9,25.7,396.1z"/>
	</g>
	<g id="freepik--plants--inject-8_00000002374204686007532790000013554986126148448406_">
		<path class="st0" d="M459,382.6c-1,3.1-1.8,6.2-2.3,9.4c-1,6.1-0.3,27.3,0,33.5l0,0l-1.1,0.3c0,0,0,0,0,0
			c-1.1-6.2-1.3-28.3,0-34.5c0.6-3.1,1.4-6.1,2.5-9c1-3.2,2.4-6.3,4.3-9.1c0.1-0.2,0.3,0.2,0.3,0.3C461.5,376.6,460,379.5,459,382.6
			z"/>
		<path class="st0" d="M460,379.2c2.7-1.7,6.1-4.5,7.5-11.1s3.2-12.4,2.6-13.8s-6.9,4.9-10.1,11.4S458.3,375.9,460,379.2z"/>
		<path class="st0" d="M462.8,384.1c-0.6-1,1.4-4.2,6.2-7.1s11.9-4.7,12.5-4.1s-4.5,6.8-9.9,9.3S463.3,385.1,462.8,384.1z"/>
		<path class="st0" d="M442.2,362.5c0.8-0.6,7.5,5.7,9.9,12c2.1,5.5,2.6,8.8,1.9,9.9l0.1,0.2c0.5,0.9,1,1.9,1.3,2.9
			c0.6,1.9,1.2,4.3,0.5,6.3c0,0.1-0.2,0-0.2-0.1c-0.5-1.9-0.7-3.8-1.2-5.6c-0.4-1.2-0.8-2.3-1.4-3.4c-1.5-0.1-4.6-2.6-7.2-7.7
			C443,371.5,441.5,363.2,442.2,362.5z"/>
		<path class="st0" d="M457.8,399.4c-0.7-1,0.9-4.3,5.4-7.7s11.4-5.9,12-5.3s-3.8,7.2-8.9,10.2S458.4,400.4,457.8,399.4z"/>
		<path class="st0" d="M456.1,389.4c0.2-0.8,0.6-1.5,1.2-2c0.7-0.7,1.4-1.3,2.2-1.8c1.7-1.1,3.5-2.1,5.4-2.8
			c0.2-0.1,0.4,0.4,0.2,0.5c-1.6,1.1-3.2,2.1-4.9,3.2c-0.8,0.5-1.5,1.1-2.1,1.7c-0.3,0.3-0.6,0.6-0.9,0.9s-0.5,0.7-0.9,0.8
			C456.2,389.8,456.1,389.5,456.1,389.4z"/>
		<path class="st0" d="M456.9,399.3c0.6-0.5,1.2-1,1.8-1.4c0.6-0.4,1.3-0.7,2.1-0.9c0.2-0.1,0.3,0.3,0.2,0.4
			c-1.2,0.8-2.3,1.7-3.4,2.7c-0.5,0.5-1,0.9-1.4,1.5c-0.4,0.4-0.6,0.9-0.7,1.5c-0.1,0.5-0.5,0.5-0.7,0
			C454.4,401.6,456,400.2,456.9,399.3z"/>
		<path class="st0" d="M455.3,407.8l-0.7,0.8c-1.8,0.1-6.7-2.9-9.8-7.2c-3.7-5.1-4.8-10.4-4.4-11.2s7.2,2.6,11.2,8.6
			C454,402.4,455.3,406.2,455.3,407.8z"/>
		<g class="st1">
			<path class="st2" d="M459,382.6c-1,3.1-1.8,6.2-2.3,9.4c-1,6.1-0.3,27.3,0,33.5l0,0l-1.1,0.3c0,0,0,0,0,0
				c-1.1-6.2-1.3-28.3,0-34.5c0.6-3.1,1.4-6.1,2.5-9c1-3.2,2.4-6.3,4.3-9.1c0.1-0.2,0.3,0.2,0.3,0.3
				C461.5,376.6,460,379.5,459,382.6z"/>
			<path class="st2" d="M460,379.2c2.7-1.7,6.1-4.5,7.5-11.1s3.2-12.4,2.6-13.8s-6.9,4.9-10.1,11.4S458.3,375.9,460,379.2z"/>
			<path class="st2" d="M462.8,384.1c-0.6-1,1.4-4.2,6.2-7.1s11.9-4.7,12.5-4.1s-4.5,6.8-9.9,9.3S463.3,385.1,462.8,384.1z"/>
			<path class="st2" d="M442.2,362.5c0.8-0.6,7.5,5.7,9.9,12c2.1,5.5,2.6,8.8,1.9,9.9l0.1,0.2c0.5,0.9,1,1.9,1.3,2.9
				c0.6,1.9,1.2,4.3,0.5,6.3c0,0.1-0.2,0-0.2-0.1c-0.5-1.9-0.7-3.8-1.2-5.6c-0.4-1.2-0.8-2.3-1.4-3.4c-1.5-0.1-4.6-2.6-7.2-7.7
				C443,371.5,441.5,363.2,442.2,362.5z"/>
			<path class="st2" d="M457.8,399.4c-0.7-1,0.9-4.3,5.4-7.7s11.4-5.9,12-5.3s-3.8,7.2-8.9,10.2S458.4,400.4,457.8,399.4z"/>
			<path class="st2" d="M456.1,389.4c0.2-0.8,0.6-1.5,1.2-2c0.7-0.7,1.4-1.3,2.2-1.8c1.7-1.1,3.5-2.1,5.4-2.8
				c0.2-0.1,0.4,0.4,0.2,0.5c-1.6,1.1-3.2,2.1-4.9,3.2c-0.8,0.5-1.5,1.1-2.1,1.7c-0.3,0.3-0.6,0.6-0.9,0.9s-0.5,0.7-0.9,0.8
				C456.2,389.8,456.1,389.5,456.1,389.4z"/>
			<path class="st2" d="M456.9,399.3c0.6-0.5,1.2-1,1.8-1.4c0.6-0.4,1.3-0.7,2.1-0.9c0.2-0.1,0.3,0.3,0.2,0.4
				c-1.2,0.8-2.3,1.7-3.4,2.7c-0.5,0.5-1,0.9-1.4,1.5c-0.4,0.4-0.6,0.9-0.7,1.5c-0.1,0.5-0.5,0.5-0.7,0
				C454.4,401.6,456,400.2,456.9,399.3z"/>
			<path class="st2" d="M455.3,407.8l-0.7,0.8c-1.8,0.1-6.7-2.9-9.8-7.2c-3.7-5.1-4.8-10.4-4.4-11.2s7.2,2.6,11.2,8.6
				C454,402.4,455.3,406.2,455.3,407.8z"/>
		</g>
		<path class="st0" d="M473.8,403.8c3.6-0.6,6.7-2.8,8.5-6c2.9-4.4,5.8-8.1,5.8-9.3s-6.4,1.6-10.5,5.4S473.5,400.9,473.8,403.8z"/>
		<path class="st0" d="M468.6,406.6c-1,0.3-2.1-4.3-1.2-8.5s3.2-7.2,3.7-7.4s1.6,6.5,0.7,9.7S469.2,406.4,468.6,406.6z"/>
		<path class="st0" d="M463,415.1c-1,0.5-3.4-4.3-3.3-9.2s1.9-8.7,2.4-9s3.2,6.8,3,10.6S463.6,414.7,463,415.1z"/>
		<path class="st0" d="M468.2,413.8c-0.7-0.9,3.5-4.1,8.3-5s8.9,0.1,9.3,0.6s-4.3,4.2-9.8,5C472.3,415,468.7,414.4,468.2,413.8z"/>
		<path class="st0" d="M476.6,400.9c-3.3,2.9-6.3,6.1-9,9.6l0.2-0.6c0.4-1,0.7-2,0.9-3.1c0.3-1,0.4-2.1,0.2-3.1c0-0.2-0.2,0-0.3,0.1
			c-0.4,1.1-0.7,2.2-1,3.3c-0.3,1-0.6,1.9-0.9,2.8c-0.5,1.3-1,2.5-1.6,3.8c-0.7,1-1.5,2-2.2,3c0.2-0.8,0.2-1.5,0.2-2.3
			c0-0.4,0-0.9-0.1-1.3c0-0.3-0.1-0.7-0.2-1c-0.1-0.2-0.3,0.1-0.3,0.1c-0.2,0.8-0.2,1.5-0.2,2.3c-0.1,0.8-0.2,1.5-0.3,2.3
			c-0.2,0.8-0.4,1.5-0.7,2.3l-0.3,0.7c-0.6,1-1.8,3.2-2.7,4.8l0.8,1c0.8-1.6,1.6-3.2,2.6-4.7s2-3.2,2.6-4.2c0.6-0.5,1.2-0.9,1.8-1.3
			c0.7-0.5,1.4-0.9,2.1-1.2c0.8-0.4,1.7-0.6,2.5-1c0.1-0.1,0.3-0.4,0.1-0.4c-0.9,0-1.8,0.2-2.7,0.6c-0.8,0.3-1.5,0.7-2.2,1.2
			c0.5-0.7,1.1-1.5,1.6-2.2c2.9-3.8,6.3-7.2,9.1-11C476.9,400.9,476.8,400.7,476.6,400.9z"/>
	</g>
</g>
<g id="freepik--Shadows--inject-8">
	<ellipse id="freepik--Shadow--inject-8" class="st3" cx="89.2" cy="448.3" rx="69.1" ry="39.9"/>
	<ellipse id="freepik--shadow--inject-8" class="st3" cx="409.5" cy="448.3" rx="69.1" ry="39.9"/>
	<polygon id="freepik--shadow--inject-8_00000088120455350030360410000010926083877278647225_" class="st3" points="263,340.1 
		363.1,398 237.7,470.5 137.6,412.5 	"/>
</g>
<g id="freepik--Supplies--inject-8">
	<path id="freepik--Parachute--inject-8" class="st3" d="M459.2,70.1c0-0.3,0.1-0.6,0.1-0.9c0-0.1,0-0.2,0-0.3
		c1.5-13.4-8.2-25.5-21.6-27c-12.5-1.4-24.1,7-26.6,19.3c-0.1,0.1-0.1,0.2-0.1,0.3c0,0.3-0.1,0.6-0.2,0.9c0.2-0.2,0.4-0.3,0.5-0.4
		l19,21l-8.8-1.4c-1.7-0.2-3.3,0.9-3.5,2.6l-2.3,14.4c-0.3,1.7,0.9,3.3,2.6,3.6l21.6,3.4c1.7,0.3,3.3-0.9,3.6-2.6l2.3-14.4
		c0.3-1.7-0.9-3.3-2.6-3.6c0,0,0,0,0,0l-8.8-1.4l24.5-14.1C459,69.7,459.1,69.9,459.2,70.1z M458.4,68.9l-25,14.4l11.3-15.7
		C448.2,64.7,455.2,65.3,458.4,68.9L458.4,68.9z M435.9,60.8c4,0.6,7.2,2.7,8.5,6.1l-11.8,16.4l-0.4-0.1L426,64
		C428.2,61.1,431.9,60.2,435.9,60.8L435.9,60.8z M425.4,64.6l5.9,18.4L412,61.6C416.2,59.1,423.1,60.7,425.4,64.6L425.4,64.6z
		 M437.3,89.9c1.8,2.4,0.5,6.6-7.6,9.3c-6.7-5.2-6.6-9.6-4.1-11.3c1.7-1,3.9-0.5,5,1.2c0.3,0.5,0.5,1.2,0.5,1.8
		c0.7-1.9,2.8-2.8,4.7-2.1C436.4,89.1,436.9,89.4,437.3,89.9L437.3,89.9z"/>
	<path id="freepik--parachute--inject-8" class="st3" d="M483.2,134.7c0-0.2-0.1-0.3-0.1-0.5c0-0.1,0-0.1,0-0.2
		c-2.1-7.5-9.9-11.8-17.4-9.6c-6.9,2-11.2,8.8-10,15.9c0,0.1,0,0.1,0,0.2c0,0.2,0.1,0.3,0.1,0.5c0-0.1,0.1-0.2,0.2-0.3l14.6,7.1
		l-5,1.1c-1,0.2-1.6,1.2-1.3,2.1l1.9,8.2c0.2,1,1.2,1.6,2.1,1.4l12.2-2.8c1-0.2,1.6-1.2,1.3-2.1l-1.9-8.2c-0.2-1-1.2-1.6-2.1-1.3
		c0,0,0,0,0,0l-5,1.1l10-12.8C483,134.5,483.1,134.6,483.2,134.7z M482.6,134.3l-10.2,13.1l2.7-10.8
		C476.2,134.2,480.1,133,482.6,134.3L482.6,134.3z M468.8,134.8c2.3-0.5,4.4-0.1,5.8,1.5l-2.8,11.3h-0.2l-7.4-8.9
		C464.8,136.6,466.6,135.3,468.8,134.8L468.8,134.8z M464.1,139l7.1,8.5l-14.9-7.3C457.9,138.1,462,137.4,464.1,139z M475.8,150
		c1.5,0.9,1.7,3.4-2.1,6.6c-4.7-1.3-5.6-3.7-4.6-5.1C471.4,152.6,474.2,152,475.8,150L475.8,150z"/>
	<path id="freepik--parachute--inject-8_00000132789961741290555730000007021722301765127306_" class="st3" d="M21.1,134.5l10,12.8
		l-5-1.1c-1-0.2-1.9,0.4-2.1,1.3c0,0,0,0,0,0l-1.9,8.2c-0.2,1,0.4,1.9,1.4,2.1l12.2,2.8c1,0.2,1.9-0.4,2.1-1.4l1.9-8.2
		c0.2-1-0.4-1.9-1.3-2.1l-5-1.1l14.6-7.1c0.1,0.1,0.1,0.2,0.2,0.3c0-0.2,0.1-0.3,0.1-0.5c0-0.1,0-0.1,0-0.2c1-7.7-4.3-14.8-12-15.8
		c-6.7-0.9-13.1,3.1-15.3,9.5c0,0.1,0,0.1,0,0.2c0,0.2-0.1,0.3-0.1,0.5C21,134.6,21.1,134.5,21.1,134.5z M29.1,136.5l2.7,10.8
		l-10.2-13.1C24,133,27.9,134.2,29.1,136.5z M39.8,138.6l-7.4,8.9h-0.2l-2.8-11.3c1.4-1.6,3.6-2,5.8-1.5S39.3,136.6,39.8,138.6
		L39.8,138.6z M47.8,140.3l-14.9,7.3L40,139C42.1,137.4,46.1,138.1,47.8,140.3L47.8,140.3z M31.3,151.8c0.5-1.1,1.7-1.5,2.7-1.1
		c0.3,0.1,0.6,0.4,0.8,0.7c1,1.4,0.1,3.8-4.6,5.1c-3.7-3.2-3.6-5.7-2.1-6.6c1-0.5,2.3-0.2,2.8,0.9C31.2,151.1,31.3,151.5,31.3,151.8
		L31.3,151.8z"/>
	<path id="freepik--parachute--inject-8_00000010279657980693208450000009332867991932628614_" class="st3" d="M89.3,69.2
		c0-0.3-0.1-0.6-0.1-0.9c0-0.1,0-0.2,0-0.3c-2.1-13.4-14.6-22.5-27.9-20.4c-12.5,1.9-21.4,13-20.7,25.6c-0.1,0.1-0.1,0.2,0,0.3
		c0,0.3,0,0.6,0.1,0.9c0.1-0.2,0.3-0.4,0.4-0.5l23.8,15.3l-8.9,1c-1.7,0.2-2.9,1.7-2.8,3.4c0,0,0,0,0,0l1.5,14.5
		c0.2,1.7,1.7,2.9,3.4,2.8l21.7-2.3c1.7-0.2,2.9-1.7,2.8-3.4c0,0,0,0,0,0l-1.6-14.5c-0.2-1.7-1.7-2.9-3.4-2.8c0,0,0,0,0,0l-8.9,1
		l20-20.1C89,68.9,89.1,69.1,89.3,69.2z M88.2,68.3L67.9,88.8l6.8-18.1C77.2,66.9,84.2,65.6,88.2,68.3z M64.4,66.3
		c4-0.4,7.7,0.7,9.8,3.7L67,89h-0.4l-11-17C57,68.7,60.4,66.8,64.4,66.3L64.4,66.3z M55.3,72.8L65.8,89L41.5,73.4
		C44.9,69.8,52,69.6,55.3,72.8z M73.4,94.1c2.4,1.9,2.2,6.2-4.9,10.9c-7.9-3.3-8.9-7.5-6.9-9.8c1.4-1.5,3.7-1.5,5.1-0.1
		c0.5,0.4,0.8,1,1,1.6c0.2-2,2-3.5,4-3.3C72.3,93.5,72.9,93.7,73.4,94.1z"/>
</g>
<g id="freepik--World--inject-8">
	<g id="freepik--world--inject-8">
		<circle class="st4" cx="250" cy="157.3" r="134.7"/>
		<path class="st5" d="M120.5,137.2c-0.2-0.4-1.8-4.7-1.8-4.8c0.2-0.1,0.3-0.3,0.3-0.5c0-0.2-0.6-0.8-1-1.4
			c-0.3,1.6-0.6,3.2-0.9,4.9c0.4,0.7,1.2,1.5,1.5,2c0.4,0.7,1.1,2.8,1.8,2.9C121.8,140.4,120.7,137.6,120.5,137.2z M172.5,49.8
			c0.5,0.4,1.2,0.6,1.8,0.7c0.3,0,0.5,0.2,0.8,0.4c0.6,0.6-1.2,2.2-0.8,2.9c0.2,0.4,1,0.4,1.6,0.5c0.8,0.2,1.7,0.3,2.6,0.3
			c0.6,0,1.1-0.2,1.7-0.3c1.4-0.3,2.8-0.5,4.1-0.5c1.1,0,2.1-0.8,2.2-1.9c0.2-1-0.7-1.1-1.7-1c-1.4,0.2-3.1,0.5-3.5,0.6
			s-0.6,0-0.4-0.3c0.4-0.5,2.1-0.7,2.4-0.8l2.1-0.5c1.2-0.3,2.5-0.5,3-0.6c0.4-0.1,0.7-0.2,1.1-0.3c0.6-0.2,1.1-0.5,1.5-0.8
			c0.9-0.8,0.4-1.3,1.2-2c0.7-0.5,1.4-0.8,2.2-1c0.8-0.3,1.6-0.6,2.4-1c1.4-0.8,1.6-2.1,2.8-3.2c0.6-0.6,1.4-1.1,2.2-1.5
			c1.1-0.6,2.7-1.2,3.5-1.6l1.6-0.8c0.6-0.3,1.2-0.7,1.8-1.2c0.4-0.3,0.7-0.7,1.1-1c0.3-0.3,0.7-0.5,1.1-0.6c1.2-0.4,2.2-1.2,3-2.3
			c0.9-1.4-0.3-1.2-0.5-1.5c-0.3-0.6-1.1-0.7-1.9-0.7c-1.8,0-4,0.5-6.1,0.7c-3,1.1-6,2.2-8.9,3.5c-2.6,1.1-5,2.3-7.5,3.5
			c0.4,0.3,0.8,0.6,1.3,0.8c1.1,0.5,3.3-0.4,5-0.6c0.7-0.1,3-0.7,3.1,0c0,1-2.6,1.8-3.1,2c-0.5,0.1-0.9,0.3-1.3,0.6
			c-0.7,0.7-1.9,1.5-2.5,1c-0.4-0.3-0.6-0.8-1.1-0.9c-0.4-0.1-0.8,0-1,0.3c-0.6,0.6-2.1,1.6-2.2,0.7c0-0.5,0.1-1.2-0.2-1.5
			s-0.7-0.3-1-0.5c0,0-0.1-0.1-0.1-0.2c-2.5,1.3-4.8,2.7-7.2,4.2c0.1,0.2,0.2,0.5,0.4,0.7c0.6,0.6,1.4,1,2.3,1.2c0.5,0,1,0,1.5,0
			c0.6-0.1,2.1-0.7,2.4-0.5s-0.6,1.4-1.2,2c-1.1,1-2.4,1.7-3.8,2.2c-2.1,0.7-3.2,0.7-4.4,0.2c-0.4-0.2-2-0.9-2.9-0.4
			S172.1,49.5,172.5,49.8L172.5,49.8z M160.7,61.5c1.3,1,3.3-0.2,4.5-1.5c1.6-1.7-0.5-2.1,0.4-2.6c0.6-0.4,1.5-0.8,1.2-1.2
			c-0.1-0.1-0.2-0.2-0.3-0.3s-1-0.3-2.6,0.3s-2.3,1.9-3.4,2.2S159.8,60.8,160.7,61.5z M168.4,52.9c0.3-0.3,1.7-1.8,1.5-2.7
			c-0.1-0.4-0.6-0.4-1.1-0.3c-0.7,0.5-1.3,1-2,1.6c0,0.5,0.1,0.9,0.2,1.3C167,53.5,168.1,53.1,168.4,52.9z M212.2,36
			c-0.9,1.4-2.5,0.8-3.2,0.9c-0.3,0.1-0.7,0.2-1,0.4c-0.8,0.6-1.3,1.4-1.6,2.4c0,0.3-0.2,0.6-1.2,1.2c-1.3,0.8-2.7,1.5-4.1,2
			c-1.2,0.4-2.2,1.2-2.9,2.3c-0.8,1-0.4,1.1-0.1,1.5c0.1,0.2,0.2,0.5,0.2,0.7c0.1,0.5-0.1,1.7,0.4,1.9s2.4-0.2,3.7-0.5
			c2.3-0.5,4.5-0.7,5.2,1.3c0.2,0.7,0.3,1.4,0.2,2.1c-0.5,1.8-1.2,3.5-2.1,5.1c-0.5,0.7-0.7,1.5-0.7,2.3c0.3,1.4,1.8,1.6,2.1,3.1
			c0.2,1.2-0.5,2.7-1.4,4.1c-1.1,1.5-2.1,1.9-3.3,3.1s-1.1,2.7-1.5,4.1c-0.5,1.6-0.7,3.4-0.6,5.1c0.1,1.8,0.4,3.7,0.7,5.5
			c0.1,0.7,0.3,1.4,0.7,2c0.6,0.9,2.5,1.4,3.9,1.3c1-0.1,1.9-0.4,2.6-1c1.8-1.5,1.9-4.2,2.9-6.3c0.6-1.6,2-2.8,3.6-3.3
			c1.4-0.4,3.2-0.6,4.5-1.8c1.1-0.9,1.9-2.6,3-3.4c1.5-1.1,3.4-0.8,4.9-1.1c1-0.3,3.1-0.9,3.6-2.3c0.2-0.8,0-1.2,0.5-1.9
			c0.3-0.4,0.8-0.7,1.2-0.8c0.2-0.1,0.5-0.1,0.8-0.2s0.8-1.1,0.5-1.6c-0.1-0.4-0.3-0.7-0.4-1c-0.5-1.8-0.4-3.2,1.1-3.9
			c1.2-0.6,3.4-1.9,3.4-4.1c-0.1-1.3-0.7-1.9-0.4-3.3c0.1-0.5,0.3-1,0.5-1.5c0.5-0.7,1.1-1.5,1.7-2.1c0.3-0.4,0.5-0.9,0.4-1.4
			c-0.2-1-1.1-1.2-1.4-1.9c-1.9-3.4,7-7.9,6.5-9.4c-0.1-0.3-0.3-0.5-0.6-0.6c-0.5-0.2-1.1-0.4-1.7-0.5c-0.3-0.1-0.7-0.1-1,0
			c-0.5,0.1-1,0.4-1.3,0.8c-0.7,0.6-1.6,1.3-1.8,1c-0.1-0.1-0.1-0.3-0.2-0.7c-0.4-1-0.6-0.3-1.3,0c-0.4,0.1-1.5,0-1.4-1
			s1.3-1.9,1.7-2.4c0.3-0.4,0.7-0.6,1.1-0.8c0.6-0.2,0.8-1.6,0.1-2.5c-0.7-0.8-1.6-1.4-2.6-1.8c-1.9-0.8-4-0.8-6-0.2
			c-1.1,0.3-2.2,0.7-3.2,1.3c-1.5,0.9-3.2,3.1-4.9,4c-0.7,0.5-1.7,0.5-2.4,0c-1.3-0.6-2.9-1.4-5.8,0.8C212.1,34.3,213,34.6,212.2,36
			z M366.2,205.3c-0.6,2.3-0.3,4.7,0.6,6.8c1,1.5,2.8,2.4,4.7,1.1c0.3-0.2,0.6-0.5,0.8-0.8c0.4-0.5,0.9-1.5,1.4-2.1
			c0.7-1.7,1.4-3.4,2.1-5.1c-0.3-0.8-0.1-1.7,0.5-2.3c0.9-1.1,1.4-2.6,0.1-3.1s-2.1,0.8-3.2,1.7c-1.4,1-2.8,1.9-4.3,2.6
			C367.9,204.7,366.7,203.8,366.2,205.3L366.2,205.3z M266.8,45.4c0.3,0.4,0.5,0.9,0.8,1.4c0.3,0.5,0.7,1,1.1,1.3
			c0.5,0.5,1,1,1.4,1.5c0.1,0.1,0.1,0.2,0.1,0.3c0.1,0.4,0,0.3,0,0.5c-0.1,0.5,0.1,0.8,0.5,1.1c0.4,0.3,0.7,0.6,1,1
			c0.6,0.5,1.8,1,2.1,0.3c0.2-0.4,0.3-0.9,0.4-1.4c0.1-0.8,0.3-1.6,0.5-2.3c0-0.1,0.1-0.2,0.1-0.3s0.5-0.3,1,0.1
			c0.4,0.3,0.7,0.6,0.9,0.8s0.3,0.2,0.4,0.3c0.1,0.2,0.2,0.4,0.1,0.7c0,0.1,0,0.2,0,0.2c0.1,0.2,0.2,0.3,0.4,0.4
			c0.5,0.4,1,0.7,1.5,0.9c0.2,0.1,0.4,0.1,0.7,0.1c0.4-0.1,0.6-0.4,0.5-0.8c0-0.1-0.1-0.2-0.2-0.3c-0.8-0.5-1.5-1.1-2.2-1.8
			c-0.4-0.5-0.8-1.1-1.1-1.7c-0.5-1.2,0.3-1.3,1-1.1c0.5,0.1,1,0.1,1.6,0.1c0.8,0,1.6-0.3,2.2-0.8c0.2-0.4,0.3-0.8,0.1-1.2l-0.1-0.1
			c-0.4-0.7-1.2-1.1-2-1c-0.8-0.1-1.8-0.2-2.6-0.4c-0.4,0-0.8-0.1-1.1-0.2c-0.3-0.1-0.6-0.3-0.9-0.3c-0.5,0-1.1,0.1-1.5,0.4
			c-0.6,0.3-1.2,0.3-1.8,0.2c-0.4-0.1-0.9-0.4-1,0c-0.2,0.6,0.5,1.4,0.6,2s-0.5,0.2-0.8-0.2s-0.2-1-0.4-1.4s-0.5-0.3-0.6-0.1
			s-0.2,0.8-0.7,0.3c-0.3-0.3-0.4-0.7-0.8-0.8c-0.6-0.3-2.3-0.1-1.9,1.2C266.3,44.7,266.5,45.1,266.8,45.4z M315.8,78
			c0.5,0.5,1,0.9,1.5,1.4c0.7,0.5,1.6,0.7,2.4,0.4c0.5-0.3,0.1-1.2-0.1-1.9c-0.1-0.3-0.2-0.5-0.3-0.8c-0.2-0.8-0.3-1.6-0.1-2.5
			c0.1-0.5,0.2-1,0.4-1.4c0.4-0.9,1.1-1.7,1.9-2.2c1.3-0.9,2.8-1.5,4.4-2c0.7-0.2,1.5-0.4,2.2-0.5c0.5-0.1,0.9-0.2,1.4-0.2
			c0.4,0,0.7,0,1.1-0.1c0.5-0.2,0.8-0.8,0.6-1.3c-0.1-0.2-0.2-0.3-0.3-0.5c-0.1-0.1-0.2-0.2-0.4-0.3c-0.3-0.2-0.7-0.2-1.1-0.1
			c-0.9,0.2-1.9,0.3-2.9,0.2c-4-0.3-7.5,0.5-9.4,3.8c-0.7,1.1-1.4,2.4-1.9,3.6c-0.1,0.5-0.2,1-0.8,1c-0.3,0-0.5,0.1-0.5,0.5
			C314.2,76.3,314.9,77.3,315.8,78L315.8,78z M243.4,81.6c1.2-1.7-0.5-4.9-1.5-4.9c-0.6,0.1-1.2,0.3-1.7,0.6c-0.6,0-1.3,0-1.9-0.1
			c-1.1-0.1-2.3,1.2-2.9,0.1s-1.8,1.9-1.1,3.9C236,85.7,241.5,84.1,243.4,81.6L243.4,81.6z M367.2,217.7c-1.1-0.3-2.2-0.5-3.4-0.6
			c-0.6-0.1-1.2-0.3-1.7-0.6c-0.3-0.2-0.5-0.5-0.7-0.8c-0.2-0.9-0.1-1.8,0.3-2.6c0.3-0.9,0.2-2-0.3-2.8c-0.2-0.4-0.3-0.8-0.5-1.1
			c-0.3-0.6-0.8-0.9-1.1-1.5c-0.3-0.6-0.4-1.3-0.3-2c0.1-0.4,0.4-0.8,0.7-1c0.6-0.7,0.9-1.5,0.9-2.4c-0.1-0.5-0.2-1-0.2-1.4
			c-0.1-0.7-0.3-1.3-0.5-2c-0.1-0.3-0.3-0.6-0.4-0.9c-0.7-2.4-0.8-5-0.2-7.4c0.2-0.7,0.6-1.4,1.2-1.2c0.2,0.1,0.4,0.2,0.5,0.3
			c0.4,0.5,0.7,1,0.9,1.5c0.2,0.5,0.4,0.9,0.5,0.9c1.3,0.1,0.5,4.7,2.5,3.1c0.6-0.5,1.4-0.7,2.1-1.2c0.3-0.2,0.5-0.4,0.8-0.6
			c0.7-0.7,1.2-1.4,1.5-2.3c0.2-0.6,0.3-1.1,0.3-1.7c0-1.2-0.2-2.5-0.7-3.6c-0.2-0.6-0.5-1.3-0.8-1.9c-0.4-0.4-0.6-1-0.5-1.6
			c0.3-1.7,2.1-3.4,3.5-2.6c0.8,0.6,2,0.6,2.8,0c1-0.8,2.2-1.5,3.4-1.9c1.6-0.4,3.7-0.7,5.1-1.8l0.4-0.3c0.8-5.5,1.2-11.1,1.2-16.7
			c0-0.6,0-1.6,0-2.4c-0.2-27.9-9.1-55-25.4-77.7l-0.8-0.1c-1.3-0.3-2.6-0.4-3.9-0.5c-1,0.1-2,0.7-2.5,1.6c-0.3,0.5-0.8,1-1.4,1.3
			c-0.7,0.2-1.4,0.2-2.1,0c-0.5-0.1-1.6-0.4-1.5,0.6s1.2,2.3,1.5,3.2c0.7,2-1.5,0.1-2-0.4c-0.6-0.6-1.3-1-2-1.4
			c-0.4-0.2-1.3-0.6-1.5-0.1c0,0.6,0.2,1.2,0.4,1.8c0.2,0.7,0.3,1-0.2,1s-1.1,0-1.6,0.1c-0.9,0.1-1.8,0-2.6-0.4
			c-1.1-0.8-1.8-1.9-2-3.2c-0.1-0.7-0.4-1.3-0.8-1.8c-0.4-0.5-0.9-0.8-1.4-1c-1.1-0.3-1.5,0.7-1.4,1.9s-1.1,1.3-0.9,2.4
			c0.3,1.1,0.8,2.2,1.5,3.1c0.5,0.8,1.5,1.9,1.1,2.6c-0.6,1-2-0.1-2.9-1c-1.2-1.2-2.6-2.1-3.8-3.3c-1-0.9-2.3-1.6-3.6-2
			c-0.7-0.2-1.2,0.1-0.5,1.1c0.3,0.5,1.5,1.5,1.2,2.2s-1.8,0.2-2.4,0.2c-1.5,0-3-0.2-4.4-0.7c-1.1-0.4-2.2-1.1-3.3-1
			c-0.5,0-1,0.1-1.5,0.2c-0.7,0.3-1.2,0.7-1.6,1.3c-0.1,0.2-0.3,0.3-0.5,0.3c-0.2,0-0.4,0.1-0.6,0.1c-0.8-0.2-1.3-0.9-1.3-1.8
			c0.1-0.7,0.2-1.4-0.3-1.9c-0.6-0.5-1.4-0.7-2.2-0.6c-0.3,0.1-0.5,0.3-0.6,0.6c-0.2,0.5-0.1,2-0.4,3c-0.1,0.5-0.5,1-0.9,1.3
			c-0.4,0.2-0.8,0.3-1.2,0.4c-0.6,0.2-1.1,0.6-1.4,1.2c-0.7,1-1.3,1.9-2.5,2s-1.9-0.6-2.8-2c-0.7-1-1.3-2-1.8-3.1
			c-0.7-1.7,1.2-0.6,1.8-0.3c0.8,0.3,1.6,0.4,2.5,0.7c0.7,0.2,1.4,0.4,2.1,0.4c0.5,0,1.5,0.1,1.6-0.8c0.2-2-3.4-4.8-4.4-5.7
			c-0.5-0.4-1-0.8-1.5-1.2c-0.8-0.6-2.2-1.7-3.2-2.3c-0.5-0.4-1.1-0.7-1.7-0.9c-0.9-0.2-1.9,0.9-2.6-1.1c-0.2-0.9-0.8-1.7-1.7-2.1
			c-1.7-0.8-3.6-1-5.5-0.6c-0.5,0.1-1,0.3-1.4,0.6c-0.8,0.4-1.6,1.4-2.2,1.6c-0.4,0.1-0.7,0.1-1.1,0c-2.2-0.6-3.3,1.3-4,4
			c-0.2,0.7-0.3,1.6-0.5,2.2c-0.1,0.4-0.3,0.8-0.6,1.1c-0.4,0.5-1.3,1.8-2,2.8l-1.3,1.9c-1.2,1.8-2.6,3.7-4.1,5.7
			c-1.2,1.3-1.8,3-1.9,4.8c0.1,1.3,0.7,2.6,1.7,3.5c0.9,0.9,2.3,1.2,3.6,0.8c1.8-0.3,2.4,0.6,2.9,2.8c0.1,1,0.4,1.9,1,2.8
			c0.7,0.6,1.6,0.9,2.5,0.8c1-0.2,1.5-1.1,1.5-2.3c-0.1-1.1,0.3-2.1,1.1-2.8c0.7-0.7,0.9-1.7,0.6-2.7c-0.3-1.7-1.1-3.8-1.2-4.9
			c-0.1-0.6,0-1.2,0.2-1.8c0.2-0.5,0.4-0.9,0.7-1.4c0.4-0.7,1.7-1.8,2.7-2.9c0.6-0.7,1.1-1.5,1.5-2.4c0.2-0.4,0.4-0.8,0.6-1.2
			c0.6-0.4,1.4-0.5,2-0.2c0.4,0.2,0.8,0.6,0.9,1.1c0.1,1-0.1,2-0.8,2.9c-0.6,0.9-1.4,1-2.1,1.8c-0.6,1.1-0.9,2.3-0.9,3.6
			c-0.1,1.2-0.4,2.7,0.1,3.8c0.6,1.4,2.3,1.3,3.4,1.4c0.5,0,1,0.1,1.6,0.2c0.8,0.1,1.5,0.4,2.2,0.8c0.3,0.3,0.5,1.3,0.1,1.5
			c-0.3,0.1-0.5,0.1-0.8,0.1c-1.1,0-2.1-0.3-3.2-0.4c-0.7,0-1.7-0.3-2,0.8c-0.2,0.8,0.5,1.6,0.8,2.1c0.4,0.5,0.6,1.2,0.5,1.9
			c-0.1,0.3-0.5,0.5-0.8,0.4c0,0,0,0,0,0c-0.5-0.3-1-0.7-1.3-1.2c-0.2-0.3-0.5-0.9-0.9-0.8c-0.6,0.2-0.6,2.2-0.6,2.9
			c0,1.1-0.3,2.1-0.9,3c-1.4,1.6-3.6,1.2-5.4,0.9c-1.1-0.3-2.2-0.7-3.2-1.1c-0.7-0.2-1.4-0.5-2-1c-1.3-1.3-0.1-3.9-0.2-5.6
			c-0.1-2-1.9-0.9-2.4,0.2c-0.7,1.7,0.4,4-0.4,5.6c-0.6,1.1-2,0.9-2.9,1.2c-1.3,0.5-2.3,1.6-2.5,3c-0.2,0.8-0.9,1.2-1.4,1.6
			c-0.7,0.6-1.5,1.1-2.3,1.7c-0.5,0.5-1.2,0.7-1.9,0.6c-0.4-0.1-1-0.5-1.4-0.2s-0.3,1-1,1.1s-1.6-0.3-2.3-0.3
			c-0.5,0-1.3,0.2-0.9,0.9s1.3,1.1,1.8,1.5c1,1,1.4,2.4,1.2,3.8c-0.1,2-0.8,3.5-2.7,3.4s-3.6-0.7-5.6-0.2c-1.7,0.5-2.1,3.6-2.4,5.3
			c-0.1,0.7,0,1.4,0.2,2.1c0.1,0.6,0.3,1.2,0.6,1.7c0.5,0.5,1.2,0.8,1.9,0.9c0.7,0,1.4,0.4,1.8,1c0.1,0.1,0.2,0.3,0.4,0.4
			c0.2,0.2,0.7-0.5,1.2-0.5c0.3,0,0.7,0.1,1,0.2c0.3,0.1,0.6,0.2,0.9,0.2c0.3,0,0.5-0.3,0.7-0.4c0.9-0.2,1.5-1.1,1.9-2
			c0.2-0.4,0.4-0.9,0.6-1.4c0.3-0.5,0.6-0.9,1-1.4c0.2-0.4,0.4-0.7,0.6-1.1c0.5-0.6,1.1-0.4,1.8-0.5c0.8-0.2,1.5-0.8,1.7-1.6
			c0.2-0.7,0.3-1.5,1-1.7c0.6-0.1,1.2,0.4,1.7,0.5c1,0,1.9-0.3,2.8-0.8c1.8-0.7,3.1,0,3.9,1.9c0.3,0.9,0.7,1.7,1.2,2.5
			c0.4,0.6,0.9,1,1.3,1.6c0.5,0.8,1.1,1.4,1.6,2.1s0.2,2.1-0.1,3c-0.1,0.4-0.5,0.9-0.3,1.3s0.7,0.1,0.9-0.1c0.8-0.7,0.8-1.7,1-2.8
			c0.1-0.5,0.1-1.1,0.5-1.2c0.2,0,0.4,0.1,0.6,0.2s0.4-0.9-0.2-1.6c-0.3-0.4-0.8-0.6-1.2-0.8c-0.4-0.1-1.1-1.4-1.3-1.8
			c-0.6-0.8-1.2-1.7-1.7-2.6c-0.5-0.7-0.7-1.5-0.7-2.4c0.2-1.2,1.4-1,2-0.3s0.4,1.2,0.7,1.9c0.5,1.5,1.9,2,2.9,2.8
			c0.7,0.6,0.6,1.3,0.8,2.2c0.2,0.7,0.4,1.4,0.5,2.1c0,0.4,0,0.7,0.2,1c0.3,0.4,0.6,0.8,0.9,1.1c0.3,0.3,0.6,0.6,0.9,1
			c0.2,0.4,0.1,0.4,0,0.8c-0.3,0.9-0.4,1.8,0.3,2.4s1.2-1,1.6-1.6c0.4-0.4,0.5-0.9,0.4-1.4c-0.1-0.5-0.5-0.9-0.7-1.4
			c-0.3-1.2,0.8-1,1.3-1.3c0.7-0.4,1.6-1.1,2.4-0.3c0.5,0.5,0.3,0.9,0.2,1.5c-0.1,0.7,0,1.3,0.1,2c0,0.7,0.1,1.3,0.2,2
			c0.6,1.4,1.9,2.4,3.4,2.7c0.6,0.1,1.2-0.3,1.8-0.1c0.2,0.1,0.4,0.4,0.6,0.5c0.4,0.2,0.8,0.3,1.3,0.3c0.6,0,1.2-0.1,1.8,0
			c1,0.1,1.2,0.4,0.8,1.5c-0.7,1.6-1.2,3.3-1.6,5c-0.1,0.6-0.2,2.3-0.7,2.7s-1.4-0.7-1.8-1c-1.3-0.8-2.8-1.3-4.3-1.4
			c-0.8,0-1.6-0.1-2.4-0.3c-0.8-0.1-1.5-0.3-2.1-0.8c-1-1.1-3.5-4-5-2.3c-1,1.2-0.9,3.6-2.8,3c-0.9-0.4-1.7-1-2.4-1.7
			c-1.2-0.9-2.4-1.6-3.7-2.2c-1-0.4-1.8-1-2.3-1.9c-0.8-1.3,0.8-1.5,1.1-2.6c0.3-1,0.1-2.2-0.6-3c-0.7-0.5-1.5-0.8-2.4-0.8
			c-0.4-0.1-0.8-0.2-1.2-0.3c-0.5,0-1,0-1.4,0.2c-1,0.1-2,0-3-0.1l-1.6-0.2c-0.3,0-1.1-0.2-1.4,0c-1.5,1-3.3,2-5.1,1.6
			c-1.1-0.2-2-0.7-3.2-0.4c-1.2,0.4-2.3,0.9-3.2,1.7c-0.9,0.6-1.7,1.2-2.5,1.9s-1.1,1.9-1.2,3.2c-0.1,0.8-0.4,1.5-0.9,2
			c-0.8,0.9-1.8,1.7-2.9,2.1c-1.3,0.4-2.4,1.1-3.3,2.1c-0.8,1-1.4,2.1-2,3.3c-1.2,2.4-1.5,5.2-0.7,7.7c0.2,0.7-0.9,2.5-1.1,3.2
			c-0.5,1.2-0.6,2.5-0.3,3.8c0.2,0.8,0.6,1.6,1.1,2.3c1,1.4,1.5,3.2,2.3,4.8c0.8,1.5,1.7,3,2.7,4.3c1.2,1.6,3,2.8,5,3.4
			c0.9,0.3,2,0.3,2.9,0c0.5-0.2,1-0.2,1.6-0.2c1.1,0.1,2.2,0,3.2-0.3c0.6-0.2,1.1-0.5,1.6-0.7c1.1-0.6,2.3-0.6,3.4,0
			c0.4,0.3,0.8,0.6,1.2,1.1c0.7,0.8,1.4,1.6,2.3,2.2c0.4,0.3,0.9,0.4,1.4,0.5c0.8,0.2,1.6,0.7,2.1,1.3c1.4,1.8,0.2,3.9-1,5.7
			s-0.6,3.5-0.1,5.1c0.3,0.8,0.5,1.5,0.8,2.2c0.4,0.8,0.7,1.6,0.8,2.4c0,0.8,0.1,1.6,0.2,2.4c0.1,1.6-0.1,3.2-0.5,4.7
			c-0.2,0.8-0.4,1.5-0.7,2.3c-0.1,0.4-0.3,0.7-0.4,1.1c-0.2,0.7-0.5,1.3-0.9,1.9c-0.2,0.3-0.3,0.6-0.5,0.9c-0.3,0.7-0.6,1.5-0.7,2.3
			c-0.3,1.3-0.9,3.5-1.1,4.8c-0.2,0.8-0.3,1.6-0.3,2.4c0.1,3.4,0.6,6.9,1.3,10.2c0.3,1.6,0.5,3.2,0.8,4.8c0.1,0.8,0.2,1.6,0.4,2.4
			c0.1,0.9,0.2,1.8,0.1,2.6c0.1,1.8,0.5,3,1.8,3.6c1.2,0.4,2.5,0.4,3.7,0.1c2.7-0.5,5.3-1.7,7.3-3.6c1.4-1.3,2.5-2.8,3.5-4.4
			c0.5-0.7,0.9-1.5,1.2-2.4c0.3-0.9,0.6-1.8,1-2.7c0.6-1.3,1.1-2.8,1.8-4.1c1-2,1.6-3.8,3.4-5.2c0.8-0.6,1.7-1.2,2.5-1.7
			c1.4-0.9,3.9-2.3,4.3-4.5c1.8-10.4,0-18.9,10.5-25.1c2.9-2.4,6.8-6.5,8.4-10.6c0.7-2-0.4-3.4-1.8-3.1c-0.8,0.2-1.6,0.4-2.5,0.5
			c-0.8,0.1-1.5,0.1-2.3,0.1c-0.8-0.1-1.5-0.3-2-0.8c-0.6-0.3-1.1-1-1.1-1.7c-0.1-0.8,0.1-1.6,0-2.4c-0.1-0.7-0.5-1.4-1-1.9
			c-1-1.3-1.7-2.8-2.2-4.3c-0.4-1.6-0.6-3.3-0.5-5c-0.1-1.1-0.4-2.2-0.9-3.2c-0.5-1-0.8-2.1-1.1-3.2c-0.3-1.1-1.4-4.9,0.2-5.5
			c1.2-0.4,1.6,3,1.9,3.9c0.5,1.8,1.1,3.5,1.8,5.2c0.3,0.9,0.7,1.7,1,2.6c0.5,1.4,1.2,3.2,1.5,3.9c0.1,0.4,0.3,0.9,0.4,1.3
			c0.4,0.8,0.6,1.7,0.8,2.5c0,3.4,0.7,5.3,2.6,5.4s4.4-1.3,6-1.9c2.9-1.1,5.7-2.4,8.4-4c0.7-0.6,1.3-1.3,1.9-2
			c0.7-0.7,1.3-1.6,1.8-2.6c0.4-0.7,0.2-1.6-0.4-2.2c-0.4-0.4-1-0.2-1.3-0.6s-0.4-1.4-0.7-1.9c-0.6-1.1-1.4-0.5-2.3-0.2
			s-2.6,1.1-3.3,0.4c-0.5-0.5-0.1-1-0.3-1.6s-0.6-0.4-1-0.6c-1-0.5-1.2-2-1.5-3.1c-0.3-0.8-0.8-2.6-0.4-3.5c0.7-1.5,2,0.8,2.4,1.4
			c0.5,0.7,1,1.4,1.5,2.1c0.3,0.6,0.8,1.1,1.4,1.4c0.6,0.4,1.2,0.8,1.8,1.1c0.5,0.2,1,0.1,1.5,0.3c0.3,0.2,0.5,0.4,0.7,0.7
			c0.7,1.1,1.9,1.9,3.1,2.1c1.4,0.2,3,0.1,4.3,0.2c1.1,0,2.2,0.2,3.1,0.8c1.1,0.8,1.9,1.9,2.3,3.2c0.3,1.1,0.4,2.6,1.4,3.2
			s2-1.6,2.5-1c0.3,0.4,0.1,1.3,0.1,1.7c0,0.6,0,1.1,0,1.7c0,1.3,0.1,2.6,0.2,3.9c0.1,2.7,0.3,5.4,0.7,8c0.2,1.2,0.5,3.1,1.5,3.7
			c0.5,0.2,1.3-0.3,1.7-0.7c0.4-0.5,0.7-1,0.9-1.5c0.3-0.7,0.6-1.4,0.8-2.1c0.4-1.3,1-2.6,1.6-3.9c0.3-0.5,0.7-1.1,1.1-1.6
			c0.7-0.9,1.5-1.7,2.4-2.4c0.7-0.4,1.4-1,2-1.5c0.2-0.3,0.5-0.6,0.7-0.8c0.5-0.5,1-1.1,1.5-1.5c0.2-0.2,0.5-0.4,0.8-0.5
			c0.4,0,0.7,0,1.1,0c0.7,0,1-0.6,1.7-0.8s1.2,0.3,1.5,0.8c0.9,1.4,0.6,3.4,0.5,5c0,0.8-0.1,1.9,0.6,2.1s1.3-0.2,1.8,0.5
			s0.4,2.1,0.6,3.1s0.9,1.4,0.9,2.5c0,0.7-0.3,0.7-0.6,1.2s-0.3,0.9-0.2,1.4c0.1,0.6,0,1.2-0.2,1.8c-0.3,0.5-0.5,1-0.7,1.6
			c0,0.3,0.1,0.7,0.4,0.8c0.5,0.4,0.8,1,0.9,1.6c0,0.4,0,0.9,0,1.2c0,0.5,0,0.9,0.1,1.4c0,0.1,0.1,0.3,0.1,0.4c0.1,0.5,0.1,1,0,1.5
			c-0.1,0.4-0.3,0.7-0.6,0.8s-0.5-0.1-0.8-0.4s-1-1-1.3-1.3c-0.2-0.2-0.4-0.3-0.7-0.4c-1.4-0.3-0.4,3.2-0.1,3.8s0.5,0.9,0.7,1.3
			c0.2,0.5,0.3,1,0.2,1.6c0.1,1.2,0.4,2.3,0.7,3.4c0.3,1,0.6,2.1,1.1,3c0.2,0.4,0.5,0.8,0.9,1.2c0.1,0.1,1,0.8,1,0.9
			c-0.8,3.9,2.9,2,4,3.4c0.9,1.3,2.3,1.1,3.6,1.2c0.4,0,0.7,0,1.1,0l0.5-0.9c-0.5-0.2-0.9-0.4-1-0.9
			C368,218.3,367.7,217.9,367.2,217.7z M299.4,138.5c-1.2-0.3-2.3-0.9-3.4-1.5c-1.5-0.8-4.2-0.6-5.9-0.5c-0.8,0.1-1.6,0-2.4-0.3
			c-1.6-0.7,0-4.3,1-6c0.4-0.9,1.1-1.7,1.8-2.4c1.4-1,3.7,1,3.2,1.4s0,0.9,0.1,1.4s0.4,1,1,0.6s0.3-2.6,1.9-3.1
			c0.2-0.1,0.4-0.1,0.6-0.2c1.6-0.4,2.3,0.6,1.7,2.5c-0.1,0.5-0.2,0.9-0.2,1.4c0.2,2.1,2.1,2.6,2.1,2.8s0.7,0.6,1.2,1.4
			S301.1,138.9,299.4,138.5z M312.2,147.7c-1.5-1-1.2-3.9-0.9-5.6s-2.2-3.9-2.2-5.9c0-3.6,3.4-5.9,5.5-5.4c1.7,0.4,0.1,2.7-0.9,4.2
			c-0.4,0.5-0.2,1.1,0.3,1.9c0.9,1.8,2.3,2.7,2.9,3.5s-0.4,1.6-1.4,1.7s1.3,3.2,0.6,5.1C315.6,148.7,313.8,148.8,312.2,147.7
			L312.2,147.7z M258.8,133.9c0.7-0.5,0.7-1.2-1.1-1.4c-0.3-0.1-0.8,0.3-1.1,0.8C256.1,134,257.7,134.7,258.8,133.9L258.8,133.9z
			 M298.8,224.1c0.2-0.9,0.2-1.7,0-2.6c-0.1-0.2-0.2-0.4-0.3-0.6c0-0.2-0.1-0.4-0.1-0.6c0-0.2-0.1-0.4-0.2-0.6
			c-0.2-0.3-1.1-0.1-1.5,0.8c-0.2,0.6-0.4,1.2-0.5,1.6c-0.7,2.3-2.8,3.1-4.2,4.6c-2,2.1-2,4.7-2.5,7.2c-0.3,1.6-1.5,3.7-1.2,5.2
			c1,5.1,5.2-1.9,6.4-4.1c1.6-2.9,2.9-5.9,3.8-9C298.6,225.4,298.7,224.8,298.8,224.1L298.8,224.1z M271.3,140.6
			c0.4-0.7,0.2-1.5-0.5-1.9c0,0-0.1,0-0.1-0.1c-0.4-0.3-0.6,0.2-0.7,0.8C269.8,140.2,270.6,141.7,271.3,140.6L271.3,140.6z
			 M266.4,134.8c1-1.6,0.4-6.9-0.6-5.2c-0.2,0.3-0.3,0.7-0.5,1C264.6,132.5,265.4,136.4,266.4,134.8L266.4,134.8z M248.1,105.4
			c-0.3,0.2-0.3,0.6-0.6,0.7s-1-0.1-1.4-0.1c-1.2,0.1-0.5,1.4-0.4,2.1c0,0.5-0.1,1-0.3,1.4c-0.2,0.4-0.6,0.8-0.5,1.3
			c0.2,1.4,1.8,0.8,2.6,0.7c1.1-0.3,2-1,2.5-2c0.3-0.8,0.3-1.6,0.1-2.4C249.7,106.4,248.9,105,248.1,105.4L248.1,105.4z
			 M159.3,150.4c-1.2-0.3-2.4-1-3.3-1.8c-0.9-0.8-2.1-1.8-3.2-1.5c-0.9,0.2,0,1.3,0.5,1.8c0.4,0.4,0.7,0.7,1.1,1
			c0.7,0.5,1.5,1.4,2,1.9c0.3,0.2,0.6,0.4,1,0.4c1.5,0.1,3.1-0.6,4.4,0.8c0.3,0.3,0.8,1.2,1.2,1.2h0.1c0.5-0.1,0.5-1,0.4-1.4
			C162.9,150.8,160.5,150.6,159.3,150.4L159.3,150.4z M251.8,112.6c-0.1,0.6-1.1,0.7-0.9,1.4s0.9,0.6,1.3,0.6c1.7,0.1,4.1,0,5.5-1.3
			c0.5-0.5,1.7-1.8,1-2.6c-0.3-0.3-0.7-0.4-0.9-0.7c-0.3-0.5-0.5-1-0.6-1.5c-0.2-0.8-0.4-1.7-0.7-2.5c-0.5-1.2-1.9-2-1.4-3.5
			c0.2-0.5,0.9-0.9,0.8-1.5c0-0.3-0.4-0.5-0.6-0.7s-1.1-1.3-0.9-1.7s-2.4-1-2.4,0c0.1,1.4-2.1,1.5-1.3,2.5l0.1,0.1
			c-0.2,0.6-0.3,1.1-0.4,1.7c-0.1,1,1.2,1.6,1.1,2.4s1.3,0.4,1.6,1.2s0,2.3-0.8,2.5s-0.7,1.8-1.3,2c-0.4,0.2-0.7,0.3-0.5,0.9
			C250.9,112.2,251.9,111.8,251.8,112.6L251.8,112.6z M166.7,75.8c-1,1.6-1.5,3.2-0.8,3.7s3-0.3,4.5-0.5c2.1-0.2,0.6-1.4-0.5-3
			C169.1,74.9,167.7,74.2,166.7,75.8z M198.5,214.3c-0.2-1.8-0.2-3.6,0.1-5.4c0.8-3.2,4-4.8,4.9-8.1c0.6-2.1-1.3-4.5-2.7-5.4
			s-2.7-4-4.5-4.2l-0.6-0.1c-1.7-0.3-4-3-5.6-3.9c-0.4-0.2-0.8-0.4-1.1-0.6c-1.7-0.7-3.4-3.2-3.9-5.3c-0.5-2-1.3-3.9-2.6-4.9
			c-1.7-1.4-4.6-0.2-5.8-2.5c-0.5-1-1.2-1.9-2.1-2.7c-0.9-0.7-1.7-1.5-2.3-2.5c-0.8-1.5-1.9-0.6-3-1.4c-0.6-0.4-0.8-0.8-1.7-1
			c-1.1-0.1-2.1-0.3-3.2-0.5c-0.8-0.2-1.1-0.7-1.7-1.4c-1.4-1.5-4.1-1-5.3,0.2c-0.6,0.6-1,1.6-1.5,2.1c-1.2,1.1-3.2-0.3-4.4-1.2
			c-0.9-0.7-1.7-1.6-2.2-2.7c-0.6-1.3-1.2-1.7-0.9-3.2c0.2-1.1,0.6-2.4,0-3.5c-0.6-0.8-1.4-1.2-2.4-1.3c-0.7-0.1-1.6,0-2.2-0.5
			c-0.7-0.6-0.9-1.6-0.7-2.5c0.2-0.5,0.9-0.8,1.3-1.2c0.2-0.2,0.4-0.5,0.5-0.8c0-0.1,0-0.8,0-0.9c0.8-1.1,0.7-1.8,0.1-2.2
			c-1.1-0.7-3.2,0.1-3.8,1.5s-3.1,2-4.5,1.1c-2.8-1.8-3.3-7.7-1.7-11.4c0.7-1.7,3-3.8,4.6-3.7c1.3,0,2.6,0.8,4,1.1
			c0.6,0.2,0.6-0.2,0.7-0.6c0.1-0.7,1.4-0.4,2.4-0.3c1.6,0.2,3.1,1.1,3.9,2.6c0.3,0.8,0.5,1.7,0.7,2.6c0.4,1.9,2.5,3.2,2.4,1.3
			c-0.1-1.2-0.4-2.8-0.6-4.2c-0.2-2,1.7-4.2,3-5c0.8-0.4,1.7-0.9,2.4-1.4c0.8-0.5,1.3-1.2,1.7-2c0.2-1-0.3-2,0-3.1
			c0.2-0.8,0.5-1.5,0.9-2.1c0.8-1,1.8-1.8,3-2.3c1.1-0.4,2.7,0.1,3.5-1.2s0.9-2.1,2.2-3c0.8-0.5,1.6-0.9,2.5-1.2
			c1.4-0.5,0.3,1.8,2,1.8c1.7-0.2,3.4-0.7,4.9-1.5c1.7-0.8,2.6-2.4,2.2-3.1s-2.2,2.2-3.7,1.6c-0.2-0.1-0.3-0.2-0.4-0.2
			c-1.3-0.9-0.6-3.3-0.9-3.3s-0.2-0.4,0.2-0.5s1.4-2.6-0.3-2.3c-0.3,0.1-0.6,0.2-0.9,0.2c-1.7,0.5-1.6-0.7,0-1.3
			c2.6-0.9,5.6-0.6,8.4-0.8c1.7-0.1,2.1,0.8,0.9,2.4s-2,2.7-0.8,3.2c1.5,0.6,3.6,0.2,3.5,0.8c-0.1,0.4-0.1,0.8,0.5,0.5
			c0.9-0.5,1.5,1.1,2.4,0.1c0.4-0.5,0.4-1.2,0.2-1.8c-0.3-0.9-0.6-2.6-1.5-2.8s-0.7-2.7,0.2-4.5c0.1-0.2,0.2-0.4,0.3-0.6
			c0.8-1.9-1.3-3.9-2.3-5.2c-2.9-3.7-1.6-3.7-2.4-8.3c-0.3-1.7-1.8-1.7-3.4-0.5c-0.8,0.6-1.6,1-2.2,0.9c-1.4-0.4,0.4-4.5-0.5-5
			c-0.5-0.3-1.1-0.5-1.2-1.4c-0.2-1.5-1.5-2.5-3-2.3c0,0,0,0,0,0c-1.4,0-3.4,2.2-3.6,3.7s-2.1,3.5-1.8,4.7s0.4,3.9-1.1,5.3
			c-0.9,0.8-2,1.4-2.7,2.2c-1.4,1.5-0.7,4.3-1.5,5.2c-0.4,0.5-1.1,0.6-1.6,0.2c0,0,0,0,0,0c-0.8-0.8-1.3-1.9-1.3-3
			c0.2-2.4,1.4-3.6-0.5-4.5c-2.5-1.1-4.8-2.7-6.6-4.8c-0.9-1-0.5-2-0.5-3.3s-1-2,0.9-3.5c1.2-1,2.9-1.5,3.9-3.2s-0.6-2,0.8-3.1
			s3.5-0.2,4.7-0.5c0.6-0.1,1.2-0.4,1.6-0.9c0.8-1.1-0.2-1.3-0.2-1.9c0-0.2,0.4-0.2,0.7-0.3c0.5,0.1,1,0,1.5-0.1
			c0.3-0.1,0.5-0.3,0.8-0.5c0.2-0.3,0.3-0.6,0.6-0.8c0.3-0.2,0.6-0.3,0.9-0.3c0.7,0,1.4-0.1,2-0.4c1.1-0.4,2.1-1.1,2.9-2
			c0.5-0.6,0.8-1.4,1-2.2c0-0.4-0.6-0.5-0.4-1.1c0.6-2.1,3-1.7,3.8-1.7c1.2,0,2.6-0.1,1.8,2c-0.4,0.9-1.1,3.1,0.4,2.1
			c0.9-0.6,1.2-0.9,1.5-0.1c0.4,0.6,0.4,1.4,0.1,2c-0.3,0.7-0.9,1.2-1.6,1.4c-0.9,0.4-2.6,3.3-3.9,3.3h-0.7c-1.4,0-2.1,3.1-0.6,2.8
			s2.8,0.8,3.4,2c0.9,1.8,2.5,3.8,3.4,4c1.4,0.2,1.2-2.9,1.9-3.1c0.4-0.1,0.9-0.1,1.3-0.1c0.2,0,0.8-1.7,0.8-1.9
			c0.1-0.5,0-1.1-0.2-1.6c-0.4-0.8-1.3-1.1-1.3-2.3s1.6-2.3,2.2-1.7c0.3,0.4,0.4,0.9,0.4,1.4c0.1,0.9,0.8,1.5,1.1,1.4
			c0.2-0.1,0.5-0.2,0.7-0.3c0.6-0.4,0.7-1.1,1.2-1.6c0.8-0.8,1.5-0.4,2.2-1.1c0.5-0.4,0.6-1.1,0.2-1.6c-0.1-0.1-0.1-0.1-0.2-0.2
			c-0.9-1-2-1.7-2.8-2.6c-0.2-0.2-0.4-0.3-0.5-0.5c-0.1-0.7,0-1.5,0.3-2.1c0.2-0.4,0.4-0.9,0.5-1.3c0.1-0.6-0.1-1.1-0.4-1.6
			c-0.3-0.5-0.6-1-1-1.4c-0.6-0.7-2.4-1.1-2.7-2.3s-0.5-2.6-1.4-2.7c-0.1,0-0.6,0.3-0.7,0.3c-0.2,0-0.4,0-0.6-0.1
			c-0.4-0.2-0.5-0.6-0.8-0.8c-0.7-0.6-1.7-0.7-2.5-0.3c-0.4,0.1-0.8,0.3-1.2,0.4c-0.7,0.1-1.4,0.1-2.1,0c-1.1,0.2-2.2,0.7-3.2,1.3
			c-0.7,0.4-1.3,0.9-1.9,1.4c-0.8,0.9-1.7,2.5-1,2.8s1.9,0.2,2.8,0.4s2.6,0.5,1.4,2.2c-0.9,1.3-2.3,0.6-2.8,2.2
			c-0.2,0.5-0.1,1-0.6,1.6c-0.4,0.5-0.9,0.9-1.5,1.2c-0.4,0.3-0.9,0.6-1.4,0.8c-0.6,0.3-1.4-0.1-1.1-0.8s1-1,1.3-1.6
			c0.2-0.4,0.1-0.8-0.2-1.1c0,0,0,0-0.1,0c-0.2-0.1-0.3-0.2-0.5-0.3c-0.4-0.2-0.7-0.6-0.9-1c-0.1-0.3-0.1-0.5-0.1-0.8
			c0-0.5-0.2-0.9-0.2-1.4c0.1-1,0.5-1.9,1.3-2.6c0.3-0.2,0.6-0.3,1-0.6c0.7-0.5,1.4-1.1,2.1-1.8c1.4-1.4,2-2.9,0.8-3
			s-3.4,0.9-4.7,2.7c-0.6,1.1-1.3,2.1-2.2,3.1c-0.9,0.8-1.9,1.4-2.7,2.2c-0.6,0.8-1.1,1.6-1.6,2.5c-0.6,0.8-0.7,0.6-1.4,0.8
			c-1.4,0.5-1.7,2.6-3.1,3.3c-0.4,0.2-0.9,0.2-1.3,0.2c-0.7,0-1.5-0.1-2.1-0.4c-0.2-0.1-0.4-0.2-0.2-0.6c0.4-0.6,1-0.6,1.4-0.8
			c1.4-0.8,2.5-2,3-3.6c0.1-0.7-0.6-0.8-0.9-1.2c-0.5-0.9-0.5-2,0.1-2.9c-2.6,2.5-5.1,5.1-7.4,7.8c0.3,0.1,0.4,0.3,0.5,0.5
			c0.1,0.4-0.2,0.8-0.6,1.2s-0.5,0.6-0.7,0.9c-0.3,0.5-1.7,2.5-2.3,1.9c-0.1-0.2-0.3-0.3-0.4-0.5c-3.7,4.6-7.2,9.4-10.3,14.4
			c-8.1,13.1-13.8,27.5-17.1,42.5c0.4,0,0.8,0.2,1,0.5c1,1.3,1.1,4.2,2,5.5c1.6,2.1,3.4,4.8,4,7.5c0.4,1.8,0.9,4.4,2.1,5.6
			c2.4,2.4,5.4,4.4,8.4,4.9s4.9,6,7.9,5.1c0.4-0.1,1.3,2.5,1.5,2.9c0.6,1.3,1.4,2.4,2.4,3.4c1.1,1,2.2,1.8,3.4,2.5
			c2.2,1.4,4.8,3.5,3.4,7c-0.8,2.1-2.2,4-3.3,6s-2,4.2-1.4,6.7s2.1,4.3,2.8,6.6s-0.3,4.9,0.4,7.5c0.9,3.2,3,4.2,5.5,5.9
			c2,1.3,3.5,3.2,4.1,5.5c1.7,5.3,2.9,10.7,3.6,16.1c0.9,6.8,1.3,13.9,3.7,20.4c1.1,3.2,2.7,6.1,4.8,8.8c1.4,1.7,3.1,2.1,3.6-0.4
			c0.3-1.6-0.6-3.1-0.8-4.7s0.6-2.6,0.9-4.1c0.3-1.2-0.4-3.3,0.7-4.1s2.2,0.2,3-1c1-1.5-0.6-2.7-0.6-4s2.2-0.9,3.1-1.9
			c0.6-0.6,0.6-1.6,1.1-2.3s0.7-0.6,1.2-0.9c0.8-0.8,1.5-1.7,1.9-2.8c0.7-1.7-0.5-4.1,0.6-5.6c0.8-1.1,2.8-1.9,4.2-2.2
			c1.1-0.3,1.8-0.2,2.7-1.4c1-1.4,1.5-3.1,1.5-4.8C197.9,216.1,198.5,215.1,198.5,214.3L198.5,214.3z M148.2,108.6
			c1.6-0.9,4.6-3.2,5.7-2.2c0.5,0.6,0.9,1.4,1,2.2c0.5,1.6,2.5,2.6,3.5,3.4s-0.9,1.6-1.3,2.8s-1.4,1.4-1.2,0.8
			c0.1-0.4,0.2-0.7-0.4-0.6c-0.9,0.2-0.6-0.4-0.2-1c0.5-0.8-1.4-2.1-2.4-0.4c-0.3,0.5-0.5,1-0.7,1.4c-0.8,1.8-2.6,1.3-1.8-0.4
			c0.1-0.2,0.2-0.5,0.3-0.7c0.9-1.8,0.8-4.1-0.7-4.3C148.3,109.4,146.5,109.6,148.2,108.6z"/>
		<path class="st6" d="M315.9,51.8c-75.9-46.9-107.1,5.1-73.2,52.8s105.6,80.3,122.2,59.8S372.3,86.7,315.9,51.8z"/>
		<path class="st7" d="M178.1,213c-49.5-70.6-0.3-172.8,65.2-190.1l0,0c-2.6,0.1-5.2,0.3-7.8,0.6c-73.9,8-127.3,74.4-119.3,148.4
			s74.4,127.3,148.4,119.3c35.9-3.9,68.7-22.1,91.1-50.4C330.5,260.9,227.5,283.5,178.1,213z"/>
	</g>
</g>
<g id="freepik--Boxes--inject-8">
	<g id="freepik--boxes--inject-8_00000135672175667253756560000014831825157242679686_">
		<g id="freepik--boxes--inject-8">
			<g id="freepik--Box--inject-8">
				<g id="freepik--box--inject-8">
					<polygon class="st0" points="345.8,314.3 345.8,397 236.1,460.2 236.1,377.7 					"/>
					<polygon class="st8" points="345.8,314.3 345.8,397 236.1,460.2 236.1,377.7 					"/>
					<path class="st2" d="M291,363.3c11.4-6.6,20.7-1.2,20.7,12s-9.3,29.3-20.7,35.9s-20.7,1.2-20.7-12S279.5,369.9,291,363.3z"/>
					<polygon class="st0" points="286.8,375.3 286.8,384.9 278.5,389.6 278.5,399.2 286.8,394.4 286.8,404 295.1,399.2 295.1,389.6 
						303.4,384.9 303.4,375.3 295.1,380.1 295.1,370.5 					"/>
					<polygon class="st0" points="236.1,377.7 236.1,460.2 148.6,409.7 148.6,327 					"/>
					<polygon class="st9" points="236.1,377.7 236.1,460.2 148.6,409.7 148.6,327 					"/>
					<polygon class="st10" points="236.1,377.7 234.4,457.1 170.9,422.5 236.1,460.2 					"/>
				</g>
				<polygon class="st0" points="258.2,263.7 345.8,314.3 236.1,377.7 148.6,327 				"/>
				<polygon class="st11" points="258.2,263.7 345.8,314.3 236.1,377.7 148.6,327 				"/>
				<polygon class="st12" points="345.8,314.3 236.1,374.5 148.6,327 236.1,377.7 				"/>
				<polygon class="st0" points="309.4,293.3 199.8,356.6 186.3,348.8 295.9,285.5 				"/>
				<polygon class="st0" points="186.3,348.8 186.3,365.9 187.9,365 189.6,367.9 191.3,366.9 193,369.9 194.7,368.9 196.4,371.8 
					198.1,370.9 199.8,373.8 199.8,356.6 				"/>
				<polygon class="st13" points="186.3,348.8 186.3,365.9 187.9,365 189.6,367.9 191.3,366.9 193,369.9 194.7,368.9 196.4,371.8 
					198.1,370.9 199.8,373.8 199.8,356.6 				"/>
				<path class="st2" d="M183.9,416.1c-1.2-0.9-2-2.2-2-3.7v-5.7l4,2.4h0.3v0.4l0,0v5.1c0.1,0.7-0.2,1.3-0.8,1.7
					c-0.2,0.1-0.4,0.2-0.6,0.2C184.5,416.4,184.2,416.3,183.9,416.1z M184.4,409.9l-0.3,2h-1.5v0.4c0,1.3,0.6,2.4,1.6,3.2
					c0.3,0.2,0.6,0.2,0.9,0.1c0.4-0.3,0.5-0.7,0.5-1.2v-4.8L184.4,409.9z M183.8,409.4l1.2-0.2l-2.4-1.4v3.5h0.9L183.8,409.4z"/>
				<path class="st2" d="M184.1,420.5c0.2,0,0.3-0.1,0.3-0.3l0,0v-4.3c0-0.2-0.1-0.3-0.3-0.3c-0.2,0-0.3,0.1-0.3,0.3c0,0,0,0,0,0
					v4.3C183.8,420.3,183.9,420.5,184.1,420.5z"/>
				<path class="st2" d="M186,421.5c0.1,0,0.2-0.1,0.3-0.2c0.1-0.2,0-0.3-0.1-0.4c0,0,0,0,0,0l-3.7-2.2c-0.2-0.1-0.3,0-0.4,0.1
					c0,0,0,0,0,0c-0.1,0.2,0,0.3,0.1,0.4c0,0,0,0,0,0l3.7,2.2C185.9,421.5,185.9,421.5,186,421.5z"/>
				<path class="st2" d="M172.6,414.1c0.1,0,0.3-0.1,0.4-0.1c0.3-0.2,0.4-0.5,0.4-0.8v-0.9c0-0.2-0.1-0.3-0.3-0.3
					c-0.2,0-0.3,0.1-0.3,0.3c0,0,0,0,0,0v0.9c0,0.1,0,0.2-0.1,0.2s-0.1,0-0.2,0c-0.4-0.4-0.6-0.9-0.6-1.5v-5.7
					c0-0.2-0.2-0.3-0.4-0.3c-0.1,0-0.2,0.1-0.3,0.3v5.8c0,0.8,0.3,1.5,0.9,2C172.3,414.1,172.5,414.1,172.6,414.1z"/>
				<path class="st2" d="M167.5,404.2V404c-0.1-1.1,0.4-2.2,1.3-2.8c1-0.5,2.2-0.4,3.1,0.3c2.4,1.6,4,4.2,4.1,7.1v0.6L167.5,404.2z
					 M169.1,401.7c-0.7,0.5-1.1,1.3-1,2.1l7.2,4.2c-0.3-2.5-1.7-4.6-3.8-6c-0.5-0.3-1-0.5-1.6-0.5
					C169.7,401.5,169.4,401.6,169.1,401.7z"/>
				<path class="st2" d="M161.1,407.5c0.2,0,0.3-0.1,0.3-0.3l0,0v-11c0-0.2-0.1-0.3-0.3-0.3c-0.2,0-0.3,0.1-0.3,0.3c0,0,0,0,0,0v11
					C160.8,407.4,160.9,407.5,161.1,407.5z"/>
				<path class="st2" d="M162,398.8c0,0,0.1,0,0.1,0c0.2-0.1,0.2-0.3,0.2-0.4c0,0,0,0,0,0l-1.1-2.6l-1.3,1.5c-0.1,0.1-0.1,0.3,0,0.5
					c0.1,0.1,0.3,0.1,0.5,0l0.6-0.7l0.7,1.7C161.8,398.7,161.9,398.8,162,398.8z"/>
				<path class="st2" d="M158.1,405.8c0.2,0,0.3-0.1,0.3-0.3l0,0v-11c0-0.2-0.1-0.3-0.3-0.3c-0.2,0-0.3,0.1-0.3,0.3c0,0,0,0,0,0v11
					C157.8,405.7,157.9,405.8,158.1,405.8z"/>
				<path class="st2" d="M159,397.1c0,0,0.1,0,0.1,0c0.2-0.1,0.2-0.3,0.2-0.4c0,0,0,0,0,0l-1.1-2.6l-1.3,1.5c-0.1,0.1-0.1,0.3,0,0.5
					c0.1,0.1,0.3,0.1,0.5,0l0.6-0.7l0.7,1.7C158.8,397,158.9,397.1,159,397.1z"/>
			</g>
			<polygon id="freepik--shadow--inject-8_00000058547047789120785480000011407240188325228479_" class="st14" points="250,273.4 
				326.3,317.5 250,361.7 173.7,317.5 			"/>
			<g id="freepik--box--inject-8_00000081646893954904732260000007056817426955422883_">
				<g id="freepik--box--inject-8_00000106107268791333099160000017950153773318853019_">
					<polygon class="st0" points="315.3,247.6 315.3,318.8 250,356.5 250,285.4 					"/>
					<polygon class="st8" points="315.3,247.6 315.3,318.8 250,356.5 250,285.4 					"/>
					<path class="st2" d="M282.6,278.1c11.4-6.6,20.7-1.2,20.7,12s-9.3,29.3-20.7,35.9s-20.7,1.2-20.7-12S271.2,284.7,282.6,278.1z"
						/>
					<path class="st0" d="M271.3,306c0-2,0.5-4,1.4-5.9l0,0l0,0c0.9-2,2.4-3.8,4.2-5c2.5-1.5,4.6,0.4,5.4,3.1c0,0.1,0.2,0.2,0.3,0.2
						c0.1,0,0.2-0.1,0.2-0.2c0.7-3.7,2.9-8.2,5.4-9.7c1.7-1,3.2-0.9,4.3,0l0,0c1,1.1,1.6,2.6,1.5,4.2c0,6-4.1,11.7-7.6,17.7
						l-3.8,5.8l-3.6-1.5C275.5,312.9,271.3,312,271.3,306z"/>
					<polygon class="st0" points="250,285.4 250,356.5 184.7,318.8 184.7,247.6 					"/>
					<polygon class="st9" points="250,285.4 250,356.5 184.7,318.8 184.7,247.6 					"/>
					<polygon class="st10" points="250,285.4 248.5,353.7 193.8,324 250,356.5 					"/>
				</g>
				<polygon class="st0" points="250,209.9 315.3,247.6 250,285.4 184.7,247.6 				"/>
				<polygon class="st11" points="250,209.9 315.3,247.6 250,285.4 184.7,247.6 				"/>
				<polygon class="st12" points="315.3,247.6 250,282.7 184.7,247.6 250,285.4 				"/>
				<polygon class="st0" points="286.3,230.8 220.9,268.6 209.3,261.9 274.7,224.1 				"/>
				<polygon class="st0" points="209.3,261.9 209.3,276.6 210.7,275.8 212.2,278.3 213.6,277.5 215.1,280 216.6,279.1 218,281.7 
					219.5,280.8 220.9,283.4 220.9,268.6 				"/>
				<polygon class="st13" points="209.3,261.9 209.3,276.6 210.7,275.8 212.2,278.3 213.6,277.5 215.1,280 216.6,279.1 218,281.7 
					219.5,280.8 220.9,283.4 220.9,268.6 				"/>
				<path class="st2" d="M218.7,325.2c-1.2-0.8-2-2.2-2-3.7v-5.7l4,2.4l0.3,0v0.4l0,0v5.1c0.1,0.7-0.2,1.3-0.8,1.7
					c-0.2,0.1-0.4,0.2-0.6,0.2C219.2,325.5,218.9,325.4,218.7,325.2z M219.1,319.1l-0.3,2h-1.5v0.4c0,1.3,0.6,2.4,1.6,3.2
					c0.3,0.2,0.6,0.2,0.9,0.1c0.4-0.3,0.5-0.7,0.5-1.2v-4.7L219.1,319.1z M218.5,318.5l1.2-0.2l-2.4-1.4v3.5h0.9L218.5,318.5z"/>
				<path class="st2" d="M218.8,329.6c0.2,0,0.3-0.1,0.3-0.3V325c0-0.2-0.2-0.3-0.3-0.3c-0.2,0-0.3,0.1-0.3,0.3l0,0v4.3
					C218.5,329.5,218.7,329.6,218.8,329.6z"/>
				<path class="st2" d="M220.7,330.7c0.1,0,0.2-0.1,0.3-0.2c0.1-0.2,0-0.3-0.1-0.4c0,0,0,0,0,0l-3.7-2.2c-0.2-0.1-0.3,0-0.4,0.1
					c0,0,0,0,0,0c-0.1,0.2,0,0.3,0.1,0.4l3.7,2.1C220.6,330.7,220.6,330.7,220.7,330.7z"/>
				<path class="st2" d="M207.4,323.3c0.1,0,0.2,0,0.4-0.1c0.3-0.2,0.4-0.5,0.4-0.8v-0.9c0-0.2-0.1-0.3-0.3-0.3
					c-0.2,0-0.3,0.1-0.3,0.3c0,0,0,0,0,0v0.9c0,0.1,0,0.2-0.1,0.2c-0.1,0-0.2,0-0.2-0.1c-0.4-0.4-0.6-0.9-0.6-1.5v-5.7
					c0-0.2-0.2-0.3-0.4-0.3c-0.1,0-0.2,0.1-0.3,0.3v5.7c0,0.8,0.3,1.5,0.9,2C207,323.2,207.2,323.3,207.4,323.3z"/>
				<path class="st2" d="M202.2,313.3v-0.2c-0.3-1.5,0.7-2.9,2.2-3.2c0.8-0.1,1.6,0.1,2.3,0.6c2.4,1.6,4,4.2,4.1,7.1v0.5
					L202.2,313.3z M203.9,310.8c-0.7,0.5-1.1,1.3-1,2.1l7.2,4.2c-0.3-2.5-1.7-4.6-3.8-6c-0.5-0.3-1-0.5-1.6-0.5
					C204.4,310.6,204.1,310.7,203.9,310.8z"/>
				<path class="st2" d="M195.8,316.7c0.2,0,0.3-0.1,0.3-0.3l0,0v-11c0-0.2-0.1-0.3-0.3-0.3c-0.2,0-0.3,0.1-0.3,0.3v11
					C195.5,316.5,195.6,316.7,195.8,316.7z"/>
				<path class="st2" d="M196.8,307.9c0,0,0.1,0,0.1,0c0.2-0.1,0.2-0.3,0.2-0.4c0,0,0,0,0,0l-1.1-2.6l-1.3,1.5
					c-0.1,0.1-0.1,0.3,0,0.5c0.1,0.1,0.3,0.1,0.5,0l0.6-0.7l0.7,1.7C196.5,307.9,196.6,307.9,196.8,307.9z"/>
				<path class="st2" d="M192.8,315c0.2,0,0.3-0.1,0.3-0.3l0,0v-11c0-0.2-0.1-0.3-0.3-0.3c-0.2,0-0.3,0.1-0.3,0.3c0,0,0,0,0,0v11
					C192.5,314.9,192.7,315,192.8,315z"/>
				<path class="st2" d="M193.8,306.2c0,0,0.1,0,0.1,0c0.2-0.1,0.2-0.3,0.2-0.4c0,0,0,0,0,0l-1.1-2.6l-1.3,1.5
					c-0.1,0.1-0.1,0.3,0,0.5c0.1,0.1,0.3,0.1,0.4,0c0,0,0,0,0,0l0.6-0.7l0.7,1.7C193.5,306.2,193.6,306.2,193.8,306.2z"/>
			</g>
		</g>
	</g>
</g>
<g id="freepik--character-3--inject-8">
	<g id="freepik--Chartacter--inject-8">
		<g id="freepik--Bottom--inject-8">
			<path class="st15" d="M458.1,420.1c-0.8-11.3-1.2-16.6-2.2-36.7l0,0c-0.1-5.2-0.3-10.7-0.6-15.6c-1.2-16.5-3.3-20.5-4.7-26.2
				s-2.6-16.3-4.7-51.9c-0.7-13.6-2.9-27.1-6.6-40.2h-51c-5.2,22.3-6.7,70.6-6.6,93.6c0.1,11.7,0.2,72.3-0.1,77.1
				c-0.3,4-2,7.7-4.9,10.5c-4.2,4.5-7.2,6.3-12.5,10.3c0.8,2,11.8,1.9,14.9,0.4c4.6-2.3,8.9-4.9,13.2-7.7c4.3-3.2,5.3-5.1,5.4-10
				c0-0.5,0-1.1,0-1.6c0.1-2.9,8.3-45.3,10.1-54.9c1.4-7.4-0.1-21.9-0.1-21.9l5.4-35.5c0,0,6.1,23.5,9.4,37.9
				c2.4,10.5,8.3,27.2,12.2,44l0,0c4.5,17.1,4.9,18.6,7.6,30.9c1.3,6.2,4.6,27,6.1,31.2c4.8,13.8,15.8,7,16.4-0.7
				C465.1,448.1,458.3,422.5,458.1,420.1z"/>
			<path class="st16" d="M352.6,446.7c-0.3,0-0.8,3.1,0.8,4.5c1.8,1.6,7,4.1,14,3.3s10.8-2.9,13.5-5.2s6.7-5.5,9.9-6.2
				c2.9-0.6,7.7-2.2,8.6-3.1s0.9-4.9,0.9-4.9L352.6,446.7z"/>
			<path class="st17" d="M397.8,421c0.6,0.3,1,0.8,1.1,1.4c0.2,1.1,0.2,2.5,0.6,4.3c0.7,3.2,0.9,6.5,0.6,9.8c-0.4,2-6.8,3.7-9.8,4.9
				c-3.6,1.5-6.9,3.6-9.9,6.1c-3.3,2.7-10.2,5.3-14.7,5.3c-6.9,0-11.4-1.9-12.7-4.4c-1.7-3.1-0.3-4.9,7.7-8.5
				c1.5-0.7,6.8-3.8,8.6-4.9c1.9-1.2,3.7-2.5,5.5-4c0.9-0.7,1.7-1.5,2.5-2.4c0.8-0.7,1.5-1.6,2-2.5c0.1-0.2,0.2-0.5,0.2-0.7
				c0.2-0.6,0.4-1.2,0.5-1.9c0.1-0.7,0.2-1.6,0.9-2c0.9-0.4,1.9-0.5,2.8-0.3c1,0.1,2.1,0.2,3.1,0.5c1.2,0.3,4.1,0.1,4.8,1.2
				c0.5,0.9,0.7,1.9,0.6,2.9c0,0.5,0,0.9,0,1.4c0,0.2-0.1,0.5,0.2,0.5s0.6-0.8,0.7-1c0.2-0.5,0.4-1.1,0.6-1.6c0.2-0.6,0.6-1.2,1-1.7
				c1.3-1.1,2.6-0.9,3-1.2C397.6,422.2,397.7,421.4,397.8,421z"/>
			<path class="st5" d="M359.3,440.5c10,0.8,13.1,7,13.5,10.8c-2.3,0.8-4.7,1.3-7.1,1.4c-6.9,0-11.7-1.9-13-4.4
				C351,445.4,352.2,443.1,359.3,440.5z"/>
			<path class="st18" d="M374.3,440.7c0.1,0,0.2,0,0.3-0.1c0.2-0.2,0.2-0.5,0.1-0.7c0,0,0,0,0,0c-2.3-2.5-5.6-3.8-9-3.7
				c-0.3,0-0.5,0.3-0.4,0.5c0,0.3,0.3,0.5,0.5,0.4c0,0,0,0,0,0c3.1-0.1,6,1.1,8.2,3.3C374,440.7,374.2,440.7,374.3,440.7z"/>
			<path class="st18" d="M378.6,438.3c0.1,0,0.2,0,0.3-0.1c0.2-0.2,0.2-0.5,0.1-0.7c0,0,0,0,0,0c-2.3-2.5-5.6-3.8-9-3.7
				c-0.3,0-0.5,0.3-0.5,0.5c0,0.3,0.3,0.5,0.5,0.5l0,0c3.1-0.1,6,1.1,8.2,3.3C378.4,438.2,378.5,438.3,378.6,438.3z"/>
			<path class="st18" d="M382.7,435.4c0.1,0,0.2,0,0.3-0.1c0.2-0.2,0.2-0.5,0.1-0.7c0,0,0,0,0,0c-2.3-2.5-5.6-3.8-9-3.7
				c-0.3,0-0.5,0.3-0.4,0.5c0,0.3,0.3,0.5,0.5,0.4c0,0,0,0,0,0c3.1-0.1,6,1.1,8.1,3.3C382.4,435.4,382.5,435.4,382.7,435.4z"/>
			<path class="st18" d="M386.6,432.6c0.1,0,0.2,0,0.3-0.1c0.2-0.2,0.2-0.5,0.1-0.7c0,0,0,0,0,0c-1.9-2.4-6.2-4.1-9.8-3.7
				c-0.3,0-0.5,0.3-0.5,0.5c0,0.3,0.3,0.5,0.5,0.5l0,0c3.3-0.3,7.3,1.2,9,3.4C386.3,432.6,386.5,432.6,386.6,432.6z"/>
			<path class="st16" d="M446.7,455.5c0.8,4.6,1.9,7.7,3.8,10.2s5.2,3.1,8.3,1.9s6.9-3.8,7.4-7.9s0.7-7-0.5-11.2L446.7,455.5z"/>
			<path class="st17" d="M458.1,420.1c1.3,0,1.7,6.2,3.1,12.4c1.6,6.7,2.8,9.2,4.2,14.7c1.5,6.2,0.8,9.2-1,13.2s-9.2,8.7-13.7,3.6
				c-3.6-4.1-4.3-9.1-4.7-15.4c-0.4-5.3-1.3-10.6-2.6-15.7c-1.1-5-2.3-9.6-1.2-10.3c0.3,1.7,0.8,3.4,1.3,5c0.2,0.3,0.8,1.2,0.8-0.2
				c0-0.4-0.2-1.3-0.2-1.7c0-0.7,0.4-1.4,1-1.6c1.6-1,3.5-1.7,5.4-1.8c2.6-0.3,4.8-0.6,6.3-0.1c0.9,0.4,1,1.2,1.1,2
				c0.2,0.9,0.3,1.5,0.5,1.3C458.9,425.1,458.1,420.8,458.1,420.1z"/>
			<path class="st5" d="M466.2,450.8c0.6,3.4,0.1,6.8-1.4,9.9c-1.8,4.1-9.9,8.8-14.3,3.7c-2.2-2.5-3.1-5.7-3.7-8.9
				C448.6,451,462.1,447.6,466.2,450.8z"/>
			<path class="st18" d="M448.8,448.3c0.1,0,0.1,0,0.2-0.1c0,0,5.8-3.2,11.9-2.5c0.3,0,0.5-0.2,0.6-0.4s-0.2-0.5-0.4-0.6
				c-6.4-0.8-12.3,2.5-12.5,2.6c-0.2,0.1-0.3,0.4-0.2,0.7c0,0,0,0,0,0C448.4,448.2,448.6,448.3,448.8,448.3z"/>
			<path class="st18" d="M460,441c0.2,0,0.3-0.2,0.4-0.4c0.1-0.3-0.1-0.5-0.4-0.6c-6.1-1.3-12.3,2.4-12.5,2.5
				c-0.2,0.2-0.3,0.5-0.1,0.7c0.2,0.2,0.5,0.3,0.7,0.1c0,0,6.1-3.6,11.7-2.4C459.9,441,460,441,460,441z"/>
			<path class="st18" d="M459.4,436.6c0.2,0,0.3-0.2,0.4-0.4c0.1-0.3-0.1-0.5-0.4-0.6c-6.7-1.6-12.5,2.4-12.7,2.5
				c-0.2,0.1-0.3,0.4-0.2,0.7c0.1,0.2,0.4,0.3,0.7,0.2c0,0,0.1-0.1,0.1-0.1c0,0,5.7-3.8,11.9-2.3L459.4,436.6z"/>
			<path class="st4" d="M458.5,432.3c0.2,0,0.3-0.2,0.4-0.4c0.1-0.3-0.1-0.5-0.3-0.6c0,0,0,0,0,0c-6.3-1.6-12.6,2.5-12.8,2.7
				c-0.2,0.2-0.3,0.5-0.1,0.7c0,0,0,0,0,0c0.1,0.2,0.4,0.3,0.7,0.1c0,0,0,0,0,0c0.1,0,6.1-4,12-2.5L458.5,432.3z"/>
			<path class="st19" d="M443.3,249.5c1.9,13.9,2.5,17.3,4.6,48.3c2,30,2.2,34.5,2.5,38.1c0.7,8.3,4.4,11.2,5.4,30.8
				c1,18,1.6,40.1,1.6,40.1s-2.4,3.3-9.2,3.9c-6.3,0.6-9.5-1.8-9.5-1.8s-11.7-41.9-15-52.4c-4.4-14.3-10.6-39.4-10.6-39.4l-4.1,28.7
				c0,0,1.3,13.8-1.3,26.8c-3.3,16.1-6.7,33.6-6.7,33.6c-3,1.1-6.3,1.5-9.5,1.2c-7.4-0.7-9.9-2.5-9.9-2.5s-2.1-48.7-2.1-66.4
				s0.2-61.3,1.3-89L443.3,249.5z"/>
			<path class="st17" d="M413,317.1l-5.1-31.1c0,0-10.3-2.7-16.9-9.6c0.5,5.1,9.6,11.8,13.9,12.8l5.7,27.6l-1.8,29.1L413,317.1z"/>
			<path class="st17" d="M425,254.3c1.6,2.6,2.9,5.3,3.9,8.2c1,2.8,1.9,5.7,2.6,8.6c0.7,2.9,1.2,5.9,1.6,8.9c0.4,3,0.6,6,0.6,9
				c-0.7-2.9-1.4-5.8-2-8.7s-1.3-5.8-2-8.7s-1.4-5.8-2.1-8.6S425.9,257.2,425,254.3z"/>
			<path class="st17" d="M428.9,255.4c1.5,1.4,2.9,2.9,4.1,4.6c1.2,1.6,2.3,3.3,3.3,5.1c1,1.8,1.8,3.7,2.5,5.6
				c0.7,1.9,1.2,3.9,1.4,6l-2.7-5.4c-0.9-1.8-1.9-3.5-2.8-5.3s-1.9-3.5-2.9-5.2S429.8,257.2,428.9,255.4z"/>
			<path class="st17" d="M422.4,291.4c1.3,9.3,2.5,18.7,3.6,28s3.5,19.6,5.2,28.8s12.6,45.3,14,54.6c-2.1-9.2-14.1-45-15.9-54.2
				s-3.9-19.6-4.8-29S422.9,300.8,422.4,291.4z"/>
			<path class="st17" d="M388.9,291.4l-1.5,24.5c-0.2,4.1-0.5,8.2-0.7,12.2s-0.4,8.2-0.4,12.2s0.3,43.2-0.2,51.4
				c-1-9.1-1.4-43.1-1.7-51.4c0-8.3,0.7-16.4,1.5-24.6S387.6,299.5,388.9,291.4z"/>
			<path class="st17" d="M401.6,402.2l-1.4,8.5c0,0-3.4,2.2-10.6,1.4s-8.2-3.1-8.2-3.1v-8c0,0,1.7,1.7,8.3,2.4
				C393.7,404,397.8,403.5,401.6,402.2z"/>
			<path class="st17" d="M457.2,400.8l0.6,8.6c0,0-2.8,2.9-10,3.9s-8.7-1.1-8.7-1.1l-1.9-7.8c0,0,2.1,1.2,8.6,0.4
				C449.9,404.3,453.8,402.9,457.2,400.8z"/>
		</g>
		<g id="freepik--Top--inject-8">
			<path id="freepik--Chest--inject-8" class="st19" d="M425.6,172.3c3.9,0.8,8.9,1.8,13.9,3.2s5.7,1.7,7.4,2.2
				c0,0,2.7,11.5,1.1,38.9c-0.2,4.1-3.2,15-3.7,23.4c-0.6,8.8-0.4,17.6,0.7,26.3c0,0-10,9.6-37.8,7.5c-21.8-1.6-27.4-11.1-27.4-11.1
				s0.2-34.8,0.8-50.9c0.7-21.1,7.1-33.3,11.8-37l14.3-2.4L425.6,172.3z"/>
			<g id="freepik--chest--inject-8">
				<path class="st15" d="M325.5,224.1c1-1.3,1.8-2.7,2.4-4.2c1.4-3.4,1.5-7.1,0.3-10.6l-2.2-0.2c-3.4-0.4-6-4.4-10-6.9
					c-2.8-1.7-5.4-3.6-7.8-5.7c-2.5-2.1-4-1-3.9,1.3s3.5,5.4,3.6,6s-5.4,0-9.3-1.4s-6-4.9-7.9-5.2c-1-0.3-2.1,0.1-2.8,1l2.3,5.1
					c0,0-2,0.2-0.1,5s4,8.2,9.2,10.7s6.8,2.4,10.2,2.8s6.7,0.1,11.2,1.2C321.6,223.3,323.3,223.6,325.5,224.1z"/>
				<path class="st17" d="M392.5,174.9c-5.7,1-9.4,3-15.9,10.1c-2.7,3-23.2,26.5-23.2,26.5l-26.5-3.5c0.6,1.5,1.1,3,1.4,4.6
					c0.5,5.4-1.4,9-3.8,12.4c9.6,2.1,27,7,31.3,7.6c6,0.8,9-2.4,14.9-7.8s23.7-20.8,23.7-20.8L392.5,174.9z"/>
			</g>
			<g id="freepik--Head--inject-8">
				<path class="st17" d="M431.3,127.2c0,0,3.4,0.3,5.6,4.5c1.1,2.1,1.9,6-1.1,17.1c-1.2,4.3-3,8.4-5.3,12.2
					c-0.7,1.2-1.8,2.1-3.2,2.5l0.2-8.5l0.3-5.9c0,0-4.8-4.4-5.2-8.6c-0.5-5.5,1.6-8.6,1.6-8.6L431.3,127.2z"/>
				<path class="st17" d="M432.4,127.5c-0.8-4.8-6.9-10.5-18.6-11.1c-9.6-0.5-15,3-18.6,8.4c-3.8,5.7-1.1,12.9-1.1,12.9l30.2-2
					L432.4,127.5z"/>
				<path class="st15" d="M435.2,157.6c-4.4,2.1-6.4-1.4-6.4-1.4l-0.7,17.6c-8.5,11.4-31.1,7.2-21.8-1.3v-4c-1.3,0-2.6-0.2-3.8-0.4
					c-3.9-0.6-6.4-3.7-7.5-8c-1.7-6.3-2.4-16.3,0-27c0.5-2.1,1.4-4.3,3.2-5.2c4.7-2.3,9,1,15.6,3.6c2.7,1.1,9.3,1.5,11,0.7
					c-2.3,2.5-2.3,10.5,1.1,13.7c0.4,0.8,1,1.6,1.7,2.2c1.4,1.2,2.6-2,3.8-3.2c2.1-1.8,5.2-1.5,6.9,0.6c0.3,0.4,0.6,0.8,0.8,1.2
					c2,4,0.4,8.8-3.6,10.7C435.3,157.5,435.3,157.5,435.2,157.6z"/>
				<path class="st0" d="M406.2,172.5c0,0-6.5,5-10.2,19.1s-4.6,54.5-4.8,67.8s0,18.3,0,18.3c-4.6-0.4-9.2-1.5-13.4-3.3
					c0-15.6-1.1-61.3,3.4-78.4s11.2-21.1,11.2-21.1L406.2,172.5z"/>
				<path class="st5" d="M377.8,261.7c4.1,2.4,8.7,3.8,13.5,4.2c0-1.4,0-2.9,0-4.5c-4.8-0.5-9.4-2.1-13.5-4.6
					C377.8,258.5,377.8,260.1,377.8,261.7z M377.8,243.1c0,1.8,0,3.6,0,5.4c4.1,2.6,8.8,4.2,13.6,4.8c0-1.5,0.1-3.1,0.1-4.8
					C386.7,247.4,382.1,245.6,377.8,243.1z"/>
				<path class="st0" d="M428.2,171.9l-0.1,1.9c0,0-5.9,22.1-7.3,40.8c-1.2,16-1.5,54.2-1.5,67.4c9.2,1.8,22,0,27.8-4.3
					c-1.1-17.6-2.2-26.7-1.2-39.9c1-13.9,6.8-39.9,1.4-60.6C442.4,175.9,434.5,173.5,428.2,171.9z"/>
				<path class="st5" d="M445.9,260.6c-4.9,4-16,7.1-26.6,6.8c0,1.7,0,3.4,0,5c0,0,17.5,0.7,27-6.9
					C446.1,263.7,446,262.1,445.9,260.6z"/>
				<path class="st5" d="M419.5,252.6c0,1.7,0,3.3-0.1,5c12.8,0.6,21.8-2.8,26.1-4.9c0-1.8-0.1-3.6-0.1-5.5
					C437.5,251.5,428.5,253.3,419.5,252.6z"/>
				<path class="st20" d="M406.3,168.5c5.1,0,9.7-0.7,12.7-1.9s5.7-5.4,6.6-9.4c0,3.3-1.4,9.1-6,11.5s-9.9,2.5-13.3,2.6L406.3,168.5
					z"/>
				<path class="st17" d="M423.8,142.7c1.2,2.4-0.2,9.9-2.4,10.9s-4.6-0.6-9.7-0.9c-3.8-0.3-7.7,0-11.4,0.9
					c-2.3,0.6-6.5,1.7-6.6-0.6c0.1,5.7,1.3,12.3,5.4,14.4s14.8,2.6,20.4-0.3s6.5-6.2,7.5-10.7c0.8-3.1,1.7-6.3,2.8-9.3L423.8,142.7z
					"/>
				<path class="st17" d="M412.2,137.4l4.3,1.8c0.5-1.2-0.1-2.6-1.3-3.2C414.1,135.6,412.7,136.2,412.2,137.4
					C412.2,137.4,412.2,137.4,412.2,137.4z"/>
				<path class="st17" d="M396,138l4.4-1.8c-0.4-1.2-1.7-1.8-2.9-1.4c0,0-0.1,0-0.1,0C396.2,135.4,395.6,136.7,396,138z"/>
				<path class="st16" d="M414.7,142.4c0,1.1-0.9,1.9-2,1.8c-1.1,0-1.9-0.9-1.8-2c0-1.1,0.9-1.9,2-1.8
					C413.9,140.5,414.7,141.4,414.7,142.4C414.7,142.4,414.7,142.4,414.7,142.4z"/>
				<path class="st16" d="M401,141.4c0,1.1-0.9,1.9-2,1.8c-1.1,0-1.9-0.9-1.8-2c0-1.1,0.9-1.9,2-1.8
					C400.2,139.4,401,140.3,401,141.4C401,141.4,401,141.4,401,141.4z"/>
				<path class="st20" d="M406.9,139.3l-1.6,12.2l-6.5-2.4C400.7,145.3,403.5,141.9,406.9,139.3z"/>
				<path class="st21" d="M411,154.6l-5,1.6c0.4,1.4,1.8,2.2,3.2,1.8c0,0,0.1,0,0.1,0C410.7,157.5,411.4,156,411,154.6z"/>
				<path class="st20" d="M410.5,155.5c0.2,0,0.4-0.1,0.6-0.1c0,1.4-1.1,2.6-2.5,2.7c0,0-0.1,0-0.1,0
					C408.3,156.8,409.2,155.7,410.5,155.5z"/>
			</g>
			<path class="st22" d="M398.3,265.6c-1.1-0.9-2.3-1.5-3.7-1.8c-0.9-0.2-1.8-0.4-2.6-0.6c-2.3-0.6-4.6-0.8-6.9-0.6
				c-0.5,0-1,0.2-1.3,0.6c-0.3,0.4-0.3,0.9-0.1,1.3c0.4,0.9,1.3,1.6,2.3,1.8l6.5,2c0.7,0.2,1.5,0.5,2.1,0.9c0.4,0.3,0.7,0.7,0.9,1.2
				l4.2-2.5C399.5,267.1,399,266.2,398.3,265.6z"/>
			<g id="freepik--box--inject-8_00000123431404935086292760000006080634161642416806_">
				<g id="freepik--box--inject-8_00000151529039955791479960000018077936511206233778_">
					<polygon class="st0" points="404.7,224.1 404.7,265.1 367.1,286.8 367.1,245.9 					"/>
					<polygon class="st8" points="404.7,224.1 404.7,265.1 367.1,286.8 367.1,245.9 					"/>
					<path class="st2" d="M385.9,241.7c6.6-3.8,11.9-0.7,11.9,6.9s-5.3,16.9-11.9,20.7s-11.9,0.7-11.9-6.9S379.3,245.5,385.9,241.7z
						"/>
					<polygon class="st0" points="367.1,245.9 367.1,286.8 329.4,265.1 329.4,224.1 					"/>
					<polygon class="st9" points="367.1,245.9 367.1,286.8 329.4,265.1 329.4,224.1 					"/>
					<polygon class="st10" points="367.1,245.9 366.2,285.3 334.7,268.1 367.1,286.8 					"/>
				</g>
				<polygon class="st0" points="367.1,202.4 404.7,224.1 367.1,245.9 329.4,224.1 				"/>
				<polygon class="st11" points="367.1,202.4 404.7,224.1 367.1,245.9 329.4,224.1 				"/>
				<polygon class="st12" points="404.7,224.1 367.1,244.4 329.4,224.1 367.1,245.9 				"/>
				<polygon class="st0" points="388,214.5 350.3,236.2 343.6,232.4 381.3,210.6 				"/>
				<polygon class="st0" points="343.6,232.4 343.6,240.9 344.4,240.4 345.3,241.8 346.1,241.3 347,242.8 347.8,242.3 348.6,243.8 
					349.5,243.3 350.3,244.7 350.3,236.2 				"/>
				<polygon class="st13" points="343.6,232.4 343.6,240.9 344.4,240.4 345.3,241.8 346.1,241.3 347,242.8 347.8,242.3 348.6,243.8 
					349.5,243.3 350.3,244.7 350.3,236.2 				"/>
				<path class="st2" d="M349,268.9c-0.7-0.5-1.1-1.3-1.1-2.2v-3.3l2.3,1.4h0.1v0.2l0,0v3c0,0.4-0.1,0.8-0.5,1
					c-0.1,0.1-0.2,0.1-0.4,0.1C349.3,269,349.2,269,349,268.9z M349.3,265.3l-0.2,1.1h-0.9v0.2c0,0.7,0.4,1.4,1,1.8
					c0.2,0.1,0.3,0.1,0.5,0c0.2-0.2,0.3-0.4,0.3-0.7v-2.7L349.3,265.3z M348.9,265l0.7-0.1l-1.4-0.8v2h0.5L348.9,265z"/>
				<path class="st2" d="M349.1,271.4c0.1,0,0.2-0.1,0.2-0.2v-2.5c0-0.1-0.1-0.2-0.2-0.2l0,0c-0.1,0-0.2,0.1-0.2,0.2c0,0,0,0,0,0
					v2.5C348.9,271.3,349,271.4,349.1,271.4z"/>
				<path class="st2" d="M350.2,272c0.1,0,0.2-0.1,0.2-0.2c0-0.1,0-0.1-0.1-0.2l-2.1-1.2c-0.1,0-0.2,0-0.3,0.1
					c-0.1,0.1,0,0.2,0.1,0.2c0,0,0,0,0,0L350.2,272C350.1,272,350.1,272,350.2,272z"/>
				<path class="st2" d="M342.5,267.7c0.1,0,0.1,0,0.2,0c0.2-0.1,0.2-0.3,0.2-0.4v-0.5c0-0.1-0.1-0.2-0.2-0.2
					c-0.1,0-0.2,0.1-0.2,0.2v0.5c0,0,0,0.1,0,0.1c0,0-0.1,0-0.1,0c-0.2-0.2-0.4-0.5-0.4-0.8v-3.3c0-0.1-0.1-0.2-0.2-0.2
					c-0.1,0-0.2,0.1-0.2,0.2v3.3c0,0.4,0.2,0.9,0.5,1.2C342.3,267.7,342.4,267.7,342.5,267.7z"/>
				<path class="st2" d="M339.5,262v-0.1c-0.2-0.9,0.4-1.7,1.3-1.8c0.5-0.1,0.9,0,1.3,0.3c1.4,0.9,2.3,2.4,2.4,4.1v0.3L339.5,262z
					 M340.5,260.6c-0.4,0.3-0.6,0.7-0.6,1.2l4.2,2.4c-0.2-1.4-1-2.7-2.2-3.5c-0.3-0.2-0.6-0.3-0.9-0.3
					C340.8,260.4,340.6,260.5,340.5,260.6L340.5,260.6z"/>
				<path class="st2" d="M335.8,263.9c0.1,0,0.2-0.1,0.2-0.2v-6.3c0-0.1-0.1-0.2-0.2-0.2c0,0,0,0,0,0c-0.1,0-0.2,0.1-0.2,0.2l0,0
					v6.3C335.7,263.8,335.7,263.9,335.8,263.9z"/>
				<path class="st2" d="M336.4,258.9L336.4,258.9c0.2,0,0.2-0.1,0.2-0.2c0,0,0,0,0,0l-0.7-1.5l-0.7,0.9c-0.1,0.1-0.1,0.2,0,0.3
					c0.1,0.1,0.2,0.1,0.3,0c0,0,0,0,0,0l0.4-0.4l0.4,1C336.2,258.9,336.3,258.9,336.4,258.9z"/>
				<path class="st2" d="M334.1,263c0.1,0,0.2-0.1,0.2-0.2l0,0v-6.3c0-0.1,0-0.2-0.1-0.2s-0.2,0-0.2,0.1c0,0,0,0.1,0,0.1v6.3
					C333.9,262.9,334,263,334.1,263z"/>
				<path class="st2" d="M334.7,257.9L334.7,257.9c0.2,0,0.2-0.1,0.2-0.2l-0.7-1.5l-0.7,0.9c-0.1,0.1-0.1,0.2,0,0.3c0,0,0,0,0,0
					c0.1,0.1,0.2,0.1,0.3,0l0.4-0.4l0.4,1C334.5,257.9,334.6,257.9,334.7,257.9z"/>
			</g>
			<polygon class="st0" points="383.4,248.5 383.4,254.1 378.6,256.9 378.6,262.5 383.4,259.7 383.4,265.3 388.3,262.5 388.3,256.9 
				393.1,254.1 393.1,248.5 388.3,251.3 388.3,245.7 			"/>
			<path class="st15" d="M447.2,177.2c-5.1,5.2-7.5,23.5-7.5,23.5l-3.9,29.9c0,0-28.3,21.5-30.8,23c-2.5,1.5-5,2.9-7.7,4.1
				c-1.9,0.8-4.4,1.6-6.9,2.4c-2.1,0.6-4.1,1.3-6.2,2.1c-1.8,0.6-2.9,1.5-1.7,3c0.6,0.8,2.6,0.9,3.7,0.8s2,0,2.9-0.1
				c1.1,0,2.1,0,2.9,0c0.7,0,1.5,0.1,2.2,0.3c1.1,0.8-1.7,3.9-2.1,4.2l-9.3,7.3c2.8,0.4,11.9,1.5,15.2,0.4c1.3-0.5,6.3-4.5,9.2-7
				c3.2-2.7,5.9-5.3,9.6-7.5s13.5-7.8,23.9-13.8c10.6-6.2,12-7,13.7-16.2c2.5-13.2,4.2-21.8,4.9-33.4
				C460,189.8,459.6,181.6,447.2,177.2z"/>
			<path class="st17" d="M410.9,248.9c3,0,8.4,7,7.1,14.7c0,0,18.4-9.6,26-13.7s8.8-5.7,10.4-11.8s5.4-29.8,6.1-37.2
				s-0.4-15.4-4.4-19c-2.6-2.2-5.6-3.8-8.9-4.7c-2.4,2.2-7,7.5-8.8,23.5l-3.2,29L410.9,248.9z"/>
			<path class="st23" d="M437.7,205.8c7.7,5.3,19.1,5.1,21.8,3.2l-2.1,14.3c-7.2,2-14.8,1-21.2-2.8L437.7,205.8z"/>
			<polygon class="st24" points="451.7,212.6 451.4,215.9 448.6,215.8 448.3,219.1 451.1,219.2 450.8,222.4 453.6,222.5 454,219.2 
				456.8,219.2 457.1,216 454.2,215.9 454.5,212.6 			"/>
		</g>
	</g>
</g>
<g id="freepik--characters-1-and-2--inject-8">
	<g id="freepik--Character--inject-8">
		<g id="freepik--bottom--inject-8">
			<path class="st15" d="M102.6,426.7C102.3,424,100,407,100,407l20.5,0.5c0,0-1.3,16.6,0,20.6c0.9,2.7,3.7,5.8,4.8,7
				s-11.6,3-16.4,2.2s-6.2-2.7-6.6-5.5C102.1,430.1,102.2,428.4,102.6,426.7z"/>
			<path class="st16" d="M148.4,451.5c0.3,0,0.8,3-0.8,4.3c-1.8,1.5-7.3,4.1-14.5,3.4s-11.3-2.6-14.2-4.7s-7.1-5.2-10.4-5.7
				c-3.1-0.5-6.4-1.7-7.4-2.5s-1-4.7-1-4.7L148.4,451.5z"/>
			<path class="st19" d="M102.6,426.7c-0.5,0-1,0.4-1.1,0.9c-0.2,1.1-0.3,4.1-0.8,5.9c-0.6,2.4-0.9,7.4-0.5,9.3s5.5,3.2,8.7,4.2
				c3.7,1.4,7.3,3.3,10.4,5.6c3.5,2.5,10.7,5,15.5,4.8c5.6-0.2,11.9-2,13.2-4.4c1.7-3,2.9-6.4-5.5-9.7c-1.6-0.6-7.2-3.5-9.1-4.5
				c-5.2-2.8-8.8-5.4-11.3-10.5c-0.2-0.6-0.7-1.2-1.2-1.5c-0.5-0.2-1.1-0.2-1.6-0.1c-1.4,0.2-6.9,1-8.1,1.6s-2.7,1.1-2.6,2.4
				c0,0.5,0.2,0.9,0.3,1.3c0.1,0.3,0.2,0.6-0.1,0.8s-0.6,0-0.8-0.2c-0.8-0.7-1.6-1.5-2.3-2.4c-0.4-0.4-0.9-0.8-1.3-1.2
				c-0.5-0.2-1-0.5-1.4-0.8C102.5,427.9,102.6,427.4,102.6,426.7z"/>
			<path class="st17" d="M119.3,452.7c-1.5-1-3-2.1-4.6-3l0,0c0,0,9.9,5.1,13.8,2.6c2.5-1.6,1.2-3.5,1.2-4.1s8.8-5.2,11.2-5.5l0,0
				c0.7,0.3,1.3,0.6,1.6,0.7c8.4,3.3,7.2,6.7,5.5,9.7c-1.4,2.4-5.9,4.4-13.1,4.6C130.2,457.8,122.8,455.2,119.3,452.7z"/>
			<path class="st17" d="M129,446.4c5.2,1.7,3,2.7,1.6,2.9s-10.2-4.2-15.7-7.9c-5.6-3.8-9.2-8.1-11.3-9.5c-0.8-0.5-1.6-1.2-2.4-1.8
				c0.1-1,0.2-2,0.3-2.5c0.1-0.5,0.6-0.9,1.1-0.9c0,0.6-0.1,1.2,0.4,1.6c0.5,0.3,0.9,0.6,1.4,0.8c0.5,0.3,0.9,0.7,1.3,1.2
				c0.7,0.9,1.5,1.7,2.3,2.4C112.8,437.8,123.7,444.6,129,446.4z"/>
			<path class="st16" d="M130.2,448.6c-0.1,0-0.2,0-0.3-0.1c-0.2-0.1-0.3-0.4-0.1-0.6c0,0,0,0,0-0.1c1.4-1.7,8.2-5.7,12-5.4
				c0.3,0,0.5,0.2,0.5,0.5c0,0,0,0,0,0c0,0.3-0.3,0.5-0.5,0.4c0,0,0,0,0,0c-3.6-0.2-10,3.8-11.1,5.1
				C130.4,448.5,130.3,448.6,130.2,448.6z"/>
			<path class="st16" d="M125.6,446.2c-0.1,0-0.2,0-0.3-0.1c-0.2-0.1-0.3-0.4-0.1-0.6c0,0,0,0,0,0c1.4-1.7,8.2-5.7,12-5.4
				c0.3,0,0.5,0.2,0.5,0.5c0,0,0,0,0,0c0,0.3-0.3,0.5-0.5,0.4c0,0,0,0,0,0c-3.6-0.2-10,3.8-11.1,5.1
				C125.9,446.1,125.7,446.2,125.6,446.2z"/>
			<path class="st16" d="M121,443.9c-0.1,0-0.2,0-0.3-0.1c-0.2-0.1-0.3-0.4-0.1-0.6c0,0,0,0,0,0c1.4-1.7,8.2-5.7,12-5.4
				c0.3,0,0.5,0.2,0.5,0.5c0,0,0,0,0,0c0,0.3-0.3,0.5-0.5,0.4c0,0,0,0,0,0c-3.6-0.2-10,3.8-11.1,5.1
				C121.3,443.9,121.1,443.9,121,443.9z"/>
			<path class="st16" d="M116.8,441.3c-0.1,0-0.2,0-0.3-0.1c-0.2-0.1-0.3-0.4-0.1-0.6c0,0,0,0,0-0.1c1.4-1.7,8.2-5.7,12-5.4
				c0.3,0,0.5,0.2,0.5,0.5c0,0,0,0,0,0c0,0.3-0.3,0.5-0.6,0.4c-3.6-0.2-10,3.7-11.1,5.1C117.1,441.2,116.9,441.3,116.8,441.3z"/>
			<path class="st16" d="M112.6,438.7c-0.1,0-0.2,0-0.3-0.1c-0.2-0.1-0.3-0.4-0.1-0.6c0,0,0,0,0-0.1c1.9-2.4,9.1-5.8,12.9-5.5
				c0.3,0,0.5,0.2,0.5,0.5c0,0,0,0,0,0c0,0.3-0.3,0.5-0.6,0.4c-3.4-0.2-10.3,3-12,5.1C112.9,438.6,112.8,438.7,112.6,438.7z"/>
			<path class="st15" d="M45.1,423.3c0,0,0.4-4.7,1.2-15l17.4,3.4l-4.5,14.7c0,0-0.2,5-2,7.4s-12,1.3-13.2-2.1
				S45.1,423.3,45.1,423.3z"/>
			<path class="st16" d="M57.3,456.8c-0.8,4.3-1.9,7-4.1,9.3s-6,2.5-9.7,1.2s-8.3-4-9-7.9s-0.2-6.4,1-10.3L57.3,456.8z"/>
			<path class="st19" d="M45.1,423.3c-1.6-0.1-2.3,5.6-3.8,11.3c-1.6,6.1-4.2,8.3-5.6,13.3c-1.5,5.7-1.4,8.4,0.9,12.3
				s11.3,8.7,16.3,4.3c4.2-3.6,4.8-8.1,5-14c0-5,0.4-9.9,1.1-14.9c0.7-4.3,1.5-8.5,0.2-9.2c-0.2,0.6-0.3,1.4-0.5,2s-0.5,2.8-1.4,2.7
				c0-0.6,0-1.1,0.1-1.6c0.1-0.5,0-1.1-0.3-1.5c-0.5-0.4-1-0.7-1.7-0.9c-1.5-0.5-3-0.9-4.6-1.2c-0.8-0.2-1.5-0.3-2.3-0.4
				c-0.7-0.1-1.3-0.1-2-0.1c-0.3,0-0.7,0.2-0.9,0.5c-0.1,0.2-0.2,0.4-0.2,0.6c0,0.4-0.1,0.8-0.3,1.2c-0.1,0.2-0.2,0.4-0.5,0.3
				c-0.2-0.1-0.2-0.2-0.2-0.4C44.7,427,45.1,423.7,45.1,423.3z"/>
			<path class="st17" d="M36.3,446.3c-0.2,0.8-1.7,6.2,0.2,7.5c2,1.4,3.6-2.8,3.6-2.8s5.1-0.5,12,3c-0.5,0.9,0.4,4,2.4,3.7
				s3.4-6.6,3.5-6.7c-0.2,5.6-0.9,10-5,13.5c-5.1,4.4-14-0.4-16.3-4.3s-2.4-6.6-0.9-12.3C35.9,447.3,36.1,446.8,36.3,446.3z"/>
			<path class="st17" d="M40.5,451.5c-0.2,2.1-2.8,1-2.7-2s3-9.8,3.5-14.9c1.5-5.7,2.3-11.4,3.8-11.3c0,0.1-0.3,3-0.3,3
				s-0.1,0.9-0.2,1.4c-0.5,4.3-2,12.5-2.9,16.4C41.2,446.5,40.8,449,40.5,451.5z"/>
			<path class="st17" d="M51.2,453.9c0.9-2.3,1.6-4.7,2.2-7.2c0.9-3.8,3.1-11.8,4.5-15.9c0.4-0.7,0.6-1.5,0.8-2.3
				c0.2-0.6,0.3-1.3,0.5-1.9c0,0,0-0.1,0-0.1c0.9,0.5,0.8,2.9,0.3,5.8c-0.4,1.6-0.9,3.7-1.6,6.1c-1.8,4.8-2.3,12.1-3.5,14.9
				S50.5,455.9,51.2,453.9z"/>
			<path class="st16" d="M52.2,454.2l-0.2-0.1c-3.7-1.9-7.8-2.9-11.9-2.7c-0.3,0-0.6-0.1-0.7-0.4c-0.1-0.2,0.2-0.5,0.5-0.5
				c4.4-0.2,8.8,0.8,12.7,2.9c0.2,0.1,0.3,0.3,0.2,0.5c0,0,0,0.1-0.1,0.1C52.6,454.2,52.4,454.3,52.2,454.2z"/>
			<path class="st16" d="M54,449.9l-0.2-0.1c-4.1-2-8.7-3.1-13.3-3c-0.3,0-0.6-0.1-0.7-0.4c0-0.3,0.2-0.5,0.5-0.5
				c4.9-0.1,9.7,1,14,3.2c0.2,0.1,0.3,0.3,0.3,0.6c0,0,0,0.1,0,0.1C54.4,449.9,54.2,449.9,54,449.9z"/>
			<path class="st16" d="M41.3,442.5c-0.2,0-0.4-0.2-0.5-0.4c-0.1-0.2,0.1-0.5,0.4-0.5c7.1-0.8,13.8,2.9,14,3.1
				c0.2,0.1,0.3,0.3,0.2,0.5c0,0,0,0.1-0.1,0.1c-0.2,0.2-0.5,0.2-0.8,0.1c-0.1,0-6.5-3.7-13.1-2.9C41.4,442.5,41.3,442.5,41.3,442.5
				z"/>
			<path class="st16" d="M42.1,438.4c-0.2,0-0.4-0.2-0.5-0.4c-0.1-0.2,0.1-0.5,0.4-0.5c5-0.6,10,0.5,14.3,3.1
				c0.2,0.1,0.3,0.3,0.2,0.5c0,0,0,0.1-0.1,0.1c-0.2,0.2-0.6,0.2-0.8,0c-4-2.3-8.7-3.4-13.3-2.9C42.2,438.4,42.2,438.4,42.1,438.4z"
				/>
			<path class="st16" d="M43,433.9c-0.2,0-0.4-0.2-0.5-0.4c-0.1-0.2,0.1-0.5,0.4-0.5c7.4-1,14.1,3.1,14.4,3.2
				c0.2,0.1,0.3,0.3,0.2,0.5c0,0,0,0.1-0.1,0.1c-0.2,0.2-0.6,0.2-0.8,0c-0.1,0-6.6-4-13.4-3C43.2,433.9,43.1,433.9,43,433.9z"/>
			<path class="st17" d="M58.3,256.1c-4,40.8-6.9,96.5-6.9,96.5c-0.3,3.1-2.6,8.4-4.4,23.7c-1.9,16.1-2.6,39.1-2.6,39.1
				s9.3,6.4,18.5,3.5c0,0,10.6-35.7,15.6-54.7c4.8-18,12.3-52,12.3-52l4.1,33.9c0,0-0.8,11.6-0.6,19.8c0.2,9.5,6.2,51.6,6.2,51.6
				c6.4,2.5,13.4,2.7,19.9,0.7c0,0,4-59.7,4.4-71.1c0.9-22.4-0.9-65.8-1.2-94.7L58.3,256.1z"/>
			<path class="st16" d="M90.9,312.2l4.4-22.3c0,0,11.1-1.4,16.9-6.4c0,0-3.8,6.7-14.3,9.1l-4.3,19.7l1.5,33.8L90.9,312.2z"/>
			<path class="st16" d="M101.4,346.5c1.1-5.6-0.4-33.1-1.5-53.2l-0.1-2.4l0.9,0l0.1,2.4c1.2,21.2,2.6,47.7,1.5,53.4
				c-2.3,12-2.4,25.8-0.5,41.1c1.4,10.9,2.3,24.6,2.8,31c-0.3-0.1-0.7-0.1-1-0.2c-0.5-6.5-1.5-20-2.8-30.7
				C99,372.5,99.1,358.6,101.4,346.5z"/>
			<path class="st16" d="M49.3,380c0.7-5.7,1.8-11.3,3.3-16.8c2.1-7.5,3.4-15.3,3.7-23.1c0.8-17.1,5-57.9,8.3-84.4l1-0.1
				c-1.2,8.9-2.4,19.5-3.6,30.3c5.5,0.1,9.1-1.3,11.6-18c0.8-5.5,1.4-9.7,1.8-12.8l1-0.1c-0.4,3.1-1,7.3-1.8,13
				c-2.3,15.7-5.7,18.9-12.1,18.9h-0.5c-2.2,20.8-4.2,42.1-4.7,53.3c-0.4,7.9-1.6,15.7-3.7,23.3c-1.5,5.5-2.6,11-3.3,16.7
				c-1,9.5-3,26.8-3.8,36.5c-0.3-0.2-0.7-0.4-0.9-0.5C46.4,406.3,48.2,389.4,49.3,380z"/>
		</g>
		<g id="freepik--top--inject-8_00000052822214975624858580000016382972497664884907_">
			<path class="st16" d="M120.8,181.8c0.1-0.4,0.1-0.8,0.1-1.2c0.3-5.7-3.2-11.1-7.9-14.2c-4.2-2.8-8.7-4.8-12.5-8.4l11.1-7
				c6.8-3.7,6.5-10,4.8-14.6c-3.8-10.3-15.1-14.1-22-14.4c-13.2-0.6-19.6,2.9-20.9,9.7c-4.9-0.4-9.1,4.9-9.8,19.6
				c-0.1,2.9-0.6,5.7-1.5,8.4c-0.8,2.3-2.4,4.3-4.4,5.6c-3.8,2.9-8.5,5.1-11,9.4c-1.5,2.6-2,5.7-1.4,8.6c0.4,1.9,1.3,3.6,2.6,5.1
				c1.2,1.2,1.6,3,0.9,4.6c-1.2,3.9-0.4,8.2,2.1,11.5c2.1,2.5,6.2,4.8,9.4,5c3.6,0.2,7.2-0.3,10.7-1.6c2.4-0.8,4.9-1.2,7.4-1.2
				c3,0.1,6,1.3,8.8,2.2c3.5,1,6.8,2.4,10.5,2c3.5-0.5,6.7-2.2,9.2-4.7c1.5-1.5,2.5-3.3,3-5.3c0.2-0.8,1.2-9,0.2-8.9
				C115.7,191.7,120,187,120.8,181.8z"/>
			<g id="freepik--Arm--inject-8">
				<path id="freepik--arm--inject-8" class="st21" d="M120.8,172.5c-3.2-0.1-6.3,0.9-8.9,2.9c-2,1.3-9.8,7-9.8,7l-7.7,5.9
					c0,0-11.5-13.1-16.1-13.9L76.2,188c0,0,9,9.3,12.1,13.1c2.2,2.7,4.6,4.6,8.7,2.1s20-13.3,20-13.3L120.8,172.5z"/>
				<path class="st17" d="M120.8,172.2c-2.8,0-5.5,0.8-7.9,2.2c-2.1,1.3-12.3,8.8-12.3,8.8s2.7,9.4,9.2,10.9l10-5.5L120.8,172.2z"/>
			</g>
			<path class="st0" d="M53.1,309c0-14.4-2.5-39.3,1.8-52.1s8.8-21.2,8.9-25.2c0,0-4.2-23.3-4.7-28.1c-1.4-12.5,0.9-18.4,3.4-19.8
				c3.1-1.2,6.2-2.2,9.3-3.1c8.7-2.5,21.1-2.8,29.2-2.7c3,0.2,4,0.3,4,0.3c3.9,2.9,7.6,6.3,10.9,9.9c6.4,7.4,10.7,14.2,9.7,21.9
				c-0.6,3.3-2,6.4-4.2,9c-0.5,3.7-1.3,14.2-1.3,14.2c0.1,4.1,0.9,9.8,3,19.8c0,0,4.8,41.5,4.8,64.1c-0.4,5.6-0.7,12.9-0.7,12.9
				c-0.5,11.8-50.5,32.6-76.5,1.4C52.9,323.8,53.1,314.4,53.1,309z"/>
			<path class="st7" d="M111.5,333.8c0-15.5-2.7-40-6.7-47.5s2.9-3.8,6.7-9.9c4.2-6.8,7.3-14.3,7.8-7.9s-2.4,46.3-3.6,56.1
				S111.5,343.1,111.5,333.8z"/>
			<g id="freepik--head--inject-8">
				<path class="st15" d="M75.3,163.2c-2.3,0.3-4.6-0.7-6-2.5c-3.1-3.6-3.3-7.2-1.7-9.5c1.3-1.9,4.3-3.1,6.4-1.7s2.2,2.6,3.1,4.3
					s4.1,1.6,5.1-4.8c0.9-6,2-11.5,5-14.1c4.5-3.9,9.4-3.1,11.1-0.7c1.9-2.8,4.6-3.8,7.6-2.1s5.1,6.2,5.8,17.7
					c0.7,11.7-2,19.8-4.7,21.7c-2.1,1.4-4.6,1.7-9,1.7l0.3,6.8c0,0,9.1,13.9-5.7,10.9c-5.9-1.3-10.9-5-13.8-10.3l-0.8-19.1
					C77.8,161.4,77.5,162.8,75.3,163.2z"/>
				<path class="st21" d="M93.6,159.6l6,2.1c-0.5,1.7-2.3,2.6-3.9,2.1c0,0,0,0-0.1,0C93.9,163.1,93,161.3,93.6,159.6z"/>
				<path class="st20" d="M94.2,160.7c-0.3-0.1-0.5-0.1-0.8-0.1c0,1.4,0.8,2.7,2.1,3.2c0.3,0.1,0.7,0.2,1,0.2
					C96.7,162.4,95.7,161,94.2,160.7z"/>
				<path class="st16" d="M93.8,150.2c-0.4,1-1.5,1.5-2.5,1.1c-1-0.4-1.5-1.5-1.1-2.5c0.4-1,1.4-1.5,2.4-1.1
					C93.6,148.1,94.1,149.2,93.8,150.2z"/>
				<path class="st16" d="M108.6,145l-4.2-1.8c0.4-1.1,1.7-1.7,2.8-1.3c0,0,0.1,0,0.1,0C108.5,142.5,109.1,143.8,108.6,145z"/>
				<path class="st16" d="M104,149.9c0.3,1,1.4,1.6,2.4,1.3c1-0.4,1.5-1.5,1.2-2.5c-0.3-1-1.4-1.6-2.4-1.3S103.7,148.8,104,149.9
					C104,149.8,104,149.9,104,149.9z"/>
				<path class="st16" d="M92.4,142.8L88,145c-0.6-1.1-0.3-2.6,0.9-3.2c0,0,0.1,0,0.1-0.1C90.2,141.1,91.7,141.6,92.4,142.8z"/>
				<polygon class="st20" points="97.8,146.2 98.7,157.6 105,155.4 				"/>
				<path class="st20" d="M97.9,173.1c-4.2-0.2-8.4-1.1-12.3-2.7c-1.4-0.6-3.4-3.2-4.9-6.1c0,0,1.1,5.7,4.2,7.7
					c4.7,3,13.2,3.7,13.2,3.7L97.9,173.1z"/>
			</g>
			<g id="freepik--Boy--inject-8">
				<g id="freepik--bottom--inject-8_00000039124830285034935870000002083735063120314298_">
					<path class="st21" d="M129.3,267.2c0.4,1.5,5.5,19.6,5.5,19.6s-4.5,7.4-10.5,5.7c-0.3-3.1-7-13.7-11-20.8
						C115.6,271.5,128,267.7,129.3,267.2z"/>
					<path class="st16" d="M138,291.7l-18.6,21.2l-0.2,0.3c0.4,1,1.4,1.6,2.5,1.5c2.2,0,7.5-2,10.8-5.4s3.7-8.4,4.1-9.6
						c0.6-2.1,2.9-2.9,3.1-5C139.5,293.5,138.9,292.5,138,291.7z"/>
					<path class="st0" d="M122.2,292c0.2,0.6,0.4,1.2,0.8,1.8c0.3,0.8,0.3,1.7,0.1,2.5c-0.4,2.1-1.1,4.1-2,6
						c-0.9,1.8-1.8,3.5-2.9,5.2c-1.2,1.9-0.6,4.3,1.2,5.5c2.2,0.2,4.5-0.2,6.5-1.3c3.8-1.8,5.9-3.5,7.7-7.1c1.3-2.5,1.1-4.2,2.4-6.7
						c0.5-1,2.8-2.9,3-4.9c-0.3-1.4-1-2.7-1.9-3.7c-0.5-0.7-1-1.5-1.3-2.4c-0.4-1.3-0.4-2-0.8-2.6c-0.2-0.3-0.6-0.5-1-0.3l0.3,1
						c0.3,1.5-2.4,3.7-3.8,4.3c-0.5-0.9-0.6-1.4-1.2-1.6c-0.9-0.1-1.9,0.1-2.7,0.6c-1.2,0.5-2.3,1.2-3.3,2c-0.5,0.3-0.9,0.7-1.1,1.3
						C122.3,291.7,122.2,291.8,122.2,292z"/>
					<path class="st13" d="M122.2,292c0.2,0.6,0.4,1.2,0.8,1.8c0.3,0.8,0.3,1.7,0.1,2.5c-0.4,2.1-1.1,4.1-2,6
						c-0.9,1.8-1.8,3.5-2.9,5.2c-1.2,1.9-0.6,4.3,1.2,5.5c2.2,0.2,4.5-0.2,6.5-1.3c3.8-1.8,5.9-3.5,7.7-7.1c1.3-2.5,1.1-4.2,2.4-6.7
						c0.5-1,2.8-2.9,3-4.9c-0.3-1.4-1-2.7-1.9-3.7c-0.5-0.7-1-1.5-1.3-2.4c-0.4-1.3-0.4-2-0.8-2.6c-0.2-0.3-0.6-0.5-1-0.3l0.3,1
						c0.3,1.5-2.4,3.7-3.8,4.3c-0.5-0.9-0.6-1.4-1.2-1.6c-0.9-0.1-1.9,0.1-2.7,0.6c-1.2,0.5-2.3,1.2-3.3,2c-0.5,0.3-0.9,0.7-1.1,1.3
						C122.3,291.7,122.2,291.8,122.2,292z"/>
					<path class="st5" d="M121.2,301.4c0.2-0.2,0.4-0.5,0.6-0.6c0.5-0.4,1-0.7,1.7-0.9c1.2-0.4,2.6-0.6,3.9-0.4c0.3,0,0.3,0.6,0,0.6
						c-1.2-0.1-2.4,0.1-3.5,0.5c-0.5,0.2-1,0.4-1.4,0.6c-0.5,0.2-1,0.6-1.3,1C121.1,301.9,121.1,301.6,121.2,301.4z"/>
					<path class="st5" d="M122.4,298.6c0.2-0.2,0.4-0.4,0.6-0.6c0.2-0.2,0.5-0.4,0.8-0.6c0.3-0.1,0.6-0.2,0.9-0.3
						c0.6-0.2,1.2-0.3,1.7-0.4c0.5-0.1,1.6-0.2,1.5,0.3v0.1c-0.2,0.4-0.8,0.3-1.2,0.4c-0.6,0.1-1.1,0.2-1.7,0.4
						c-0.5,0.1-1.1,0.3-1.6,0.6c-0.3,0.1-0.5,0.3-0.7,0.5c-0.2,0.1-0.3,0.3-0.3,0.5C122.2,299.2,122.3,298.8,122.4,298.6z"/>
					<path class="st5" d="M122.9,296.5c0.1-0.6,0.4-1.1,0.9-1.5c0.4-0.4,0.9-0.6,1.4-0.8c0.6-0.2,1.2-0.4,1.8-0.5
						c0.2,0,0.4-0.1,0.7-0.1h0.2h0.2c0.1,0,0.2,0,0.3,0c0.1,0,0.2,0,0.2,0.1c0.1,0.1,0.1,0.2,0,0.3c0,0-0.1,0.1-0.1,0.1l0,0l0,0
						l-0.1,0.1c-0.1,0-0.2,0.1-0.3,0.1H128c-0.2,0-0.4,0.1-0.6,0.1h-0.1h-0.1c-0.2,0-0.4,0-0.6,0.1l-0.3,0.1l-0.1,0l0,0h-0.1H126
						h-0.2l-0.3,0.1c-0.4,0.2-0.8,0.4-1.2,0.6c-0.2,0.1-0.4,0.3-0.6,0.4c-0.3,0.2-0.5,0.5-0.7,0.8
						C123,296.8,122.9,296.6,122.9,296.5z"/>
					<path class="st5" d="M119.2,313.2c-2.5-1.6-2.9-4-0.8-6.9s7.3-4.4,9.7-4.1s4.4,1.2,4.8,3.6c0,0-1.9,3.9-7.3,6.4
						C123.6,313.3,121.4,313.6,119.2,313.2z"/>
					<path class="st19" d="M124.3,248.9c2,5.2,3.7,10.6,5.1,16c1.5,6.7,3.5,13.5,3.5,13.5s-4.2,5.4-13.3,6.2c0,0-6.9-11.9-11.7-19.9
						c-5.4-9-9.1-13.7-7.5-21.2c2.5-12.8,8.6-28,9.3-34.3l38.6,1.8L124.3,248.9z"/>
					<path class="st20" d="M132.1,284.5c-0.2,1.6-2,20.2-2,20.2s-6.9,5.3-11.9,1.5c0.8-3-1.6-15.3-2.8-23.4
						C117.8,283.6,130.7,284.5,132.1,284.5z"/>
					<path class="st16" d="M131.6,309.8l-25.2,13.8l-0.3,0.2c0,0.8,0.2,1.6,1.8,2.3c2,0.8,7.7,0.9,12-1.1s6.5-6.5,7.3-7.5
						c1.4-1.8,4-2.4,5-4.5C132.1,311.9,132,310.8,131.6,309.8z"/>
					<path class="st0" d="M116.6,305.1c-0.1,0.7,0,1.3,0.1,2c0,0.8-0.3,1.7-0.8,2.4c-1.1,1.8-2.5,3.4-4,4.8c-1.4,1.4-3,2.6-4.6,3.8
						c-1.8,1.3-2.2,3.8-0.9,5.6c2,1,4.3,1.4,6.5,1.1c4.2-0.4,6.7-1.1,9.8-3.8c2.1-1.9,2.5-3.5,4.6-5.4c0.8-0.7,3.9-2.5,4.7-4.2
						c0.3-1.2,0.1-2.5-0.4-3.6c-0.3-0.8-0.5-1.6-0.6-2.4c0.1-1.4,0.4-2,0.2-2.7c-0.1-0.4-0.4-0.7-0.8-0.7l-0.1,1.1
						c-0.3,1.5-3.6,2.5-5.1,2.7c-0.2-1,0-1.5-0.6-1.9c-0.8-0.4-1.8-0.6-2.7-0.4c-1.3,0.1-2.6,0.3-3.8,0.7c-0.6,0.1-1.1,0.4-1.4,0.8
						C116.7,304.8,116.6,304.9,116.6,305.1z"/>
					<path class="st25" d="M116.6,305.1c-0.1,0.7,0,1.3,0.1,2c0,0.8-0.3,1.7-0.8,2.4c-1.1,1.8-2.5,3.4-4,4.8c-1.4,1.4-3,2.6-4.6,3.8
						c-1.8,1.3-2.2,3.8-0.9,5.6c2,1,4.3,1.4,6.5,1.1c4.2-0.4,6.7-1.1,9.8-3.8c2.1-1.9,2.5-3.5,4.6-5.4c0.8-0.7,3.9-2.5,4.7-4.2
						c0.3-1.2,0.1-2.5-0.4-3.6c-0.3-0.8-0.5-1.6-0.6-2.4c0.1-1.4,0.4-2,0.2-2.7c-0.1-0.4-0.4-0.7-0.8-0.7l-0.1,1.1
						c-0.3,1.5-3.6,2.5-5.1,2.7c-0.2-1,0-1.5-0.6-1.9c-0.8-0.4-1.8-0.6-2.7-0.4c-1.3,0.1-2.6,0.3-3.8,0.7c-0.6,0.1-1.1,0.4-1.4,0.8
						C116.7,304.8,116.6,304.9,116.6,305.1z"/>
					<path class="st5" d="M112.2,313.5c0.3-0.2,0.5-0.3,0.8-0.4c0.6-0.2,1.2-0.3,1.9-0.3c1.3,0,2.6,0.4,3.8,1
						c0.2,0.1,0.1,0.7-0.2,0.6c-1.1-0.5-2.3-0.8-3.5-0.8c-0.5,0-1,0-1.5,0c-0.6,0-1.1,0.2-1.6,0.5
						C111.9,313.9,112,313.6,112.2,313.5z"/>
					<path class="st5" d="M114.3,311.3c0.2-0.2,0.5-0.3,0.8-0.4c0.3-0.1,0.7-0.2,1-0.2c0.3,0,0.7,0,1,0c0.6,0,1.2,0.1,1.8,0.2
						c0.5,0.1,1.5,0.4,1.3,0.8l-0.1,0.1c-0.3,0.3-0.9,0-1.2-0.1c-0.6-0.1-1.1-0.2-1.7-0.3c-0.6,0-1.1,0-1.7,0
						c-0.3,0-0.6,0.1-0.8,0.2c-0.2,0.1-0.4,0.2-0.5,0.3C113.9,311.8,114.1,311.5,114.3,311.3z"/>
					<path class="st5" d="M115.5,309.6c0.3-0.5,0.8-0.9,1.4-1c0.5-0.2,1-0.3,1.6-0.3c0.6,0,1.3,0.1,1.9,0.2c0.2,0,0.4,0.1,0.6,0.1
						h0.2h0.1h0.1h0.1c0.1,0,0.2,0.1,0.2,0.1c0.1,0,0.1,0.1,0.2,0.2c0,0.1,0,0.2-0.1,0.3c0,0-0.1,0.1-0.1,0.1h-0.1h-0.2
						c-0.1,0-0.2,0-0.3,0H121c-0.2,0-0.4-0.1-0.6-0.1h-0.1c0,0-0.1,0-0.1,0c-0.2,0-0.4-0.1-0.6-0.1h-0.3h-0.8c-0.4,0-0.9,0-1.3,0.1
						c-0.2,0.1-0.5,0.1-0.7,0.2c-0.3,0.1-0.6,0.2-0.9,0.5C115.5,309.8,115.5,309.6,115.5,309.6z"/>
					<path class="st5" d="M106.1,323.8c-1.7-2.4-1.3-4.8,1.7-6.7s8.4-1.4,10.5-0.3s3.7,2.7,3.2,5.1c0,0-3.2,2.9-9.2,3.3
						C110.1,325.5,107.9,325,106.1,323.8z"/>
					<path class="st19" d="M149,209.1c0.1,4.1,1.8,9.6,0.9,18.1s-9.1,22.5-11.6,26.9c-2.6,4.4-5.7,10.2-5.7,10.2s1.6,11.3,0.6,18.1
						s-1.6,13.9-1.6,13.9s-5.8,3.5-14.6,0.9c0,0-2.1-13.6-3.7-22.8c-1.8-10.4-3.1-13.8-0.5-24.2c2.8-11.2,6.5-17.2,6.5-17.2
						s-7.8-12.3-7.4-24.5L149,209.1z"/>
					<path class="st17" d="M132.6,255.4c1.5-2.8,3.3-6.3,5.6-11c7.3-14.6,7.7-22,5.8-32.9l0.8-0.1c1.9,11.1,1.5,18.6-5.9,33.4
						c-2.3,4.7-4.2,8.2-5.6,11c-2.9,5.5-4.1,7.8-4.1,9.6c1,6.2,1.1,9.5,0.1,20.8c-0.3,3.8-0.7,7.5-1.1,11.3
						c-0.3,0.1-0.5,0.1-0.8,0.2c0.4-3.8,0.7-7.6,1.1-11.6c1-11.2,0.9-14.5-0.1-20.6C128.4,263.4,129.7,261,132.6,255.4z"/>
					<path class="st17" d="M144.9,227.3l0.1-0.8c-5-0.9-7.4-5.8-6.9-14.1l-0.8-0.1C136.7,223.5,141.1,226.6,144.9,227.3z"/>
					<path class="st17" d="M119.2,233.1c4.2-6.1,10.8-5.7,15.1-5.5c-10.9-3.8-16.9,3.4-16.9,3.4c-2.9-2.1-5.2-4.9-6.6-8.2
						c-0.2,5.8,5.4,10,5.4,10s-4.4,16.8-5,23.4C113.3,248.3,116,240.6,119.2,233.1z"/>
				</g>
				<g id="freepik--top--inject-8">
					<path class="st0" d="M151.5,206c0.7-7.9,1.6-16.2,1.9-18.2c0.7-4,0.2-10.5-5-12.4s-8.1-2.7-8.1-2.7s-9.4-0.8-11.7-0.8
						c-3.9,0-7.8,0.2-7.8,0.2c-2.3,1.5-8.5,5.8-10,20.2c-0.7,6.5-1.8,13-3.1,19.5c-0.1,0.9,0.2,1.9,0.9,2.6
						c6.8,7.9,32.7,11.6,41.5,5.8c1.1-0.8,1.7-2.1,1.6-3.4C151.3,213.2,151.2,209.6,151.5,206z"/>
					<path class="st26" d="M151.5,206c0.7-7.9,1.6-16.2,1.9-18.2c0.7-4,0.2-10.5-5-12.4s-8.1-2.7-8.1-2.7s-9.4-0.8-11.7-0.8
						c-3.9,0-7.8,0.2-7.8,0.2c-2.3,1.5-8.5,5.8-10,20.2c-0.7,6.5-1.8,13-3.1,19.5c-0.1,0.9,0.2,1.9,0.9,2.6
						c6.8,7.9,32.7,11.6,41.5,5.8c1.1-0.8,1.7-2.1,1.6-3.4C151.3,213.2,151.2,209.6,151.5,206z"/>
					<path class="st16" d="M142.2,167.4c4.2-3.3,8.2-4.3,11.6-10.7s1.2-12.5-2.2-14.1c0,0,0.3-6-6.3-10.1
						c-5.2-3.2-13.1-4.5-18.8-2.3c-3.1,1.2-5.5,2.3-7.4,5c-2.1,3-3.1,6.6-2.8,10.3c0.4,2.5,1.6,4.7,3.5,6.3
						C121.7,153.4,142.2,167.4,142.2,167.4z"/>
					<path class="st20" d="M143.9,156.5c0.1,0.1,0.1,0.1,0.2,0.2c0.9,0.8,1.2-1,2.4-2.1c0.6-0.5,1.5-0.7,2.3-0.6
						c1.4,0.1,2.5,1.1,2.9,2.4c0.6,2.7-1.1,5.5-3.8,6.1c0,0-0.1,0-0.1,0c-1.6,0.4-3.3-0.2-4.3-1.5l-1.6,12.4c-3,2-6.4,3.2-9.9,3.5
						c-7.4,0.8-8.6-2.8-5.7-4.9l0.4-3.2c-1.8-0.2-3.5-0.7-5.2-1.5c-4.6-2.4-5.3-6.5-5.6-8.7c-0.4-2.8,0.6-5.6,1.9-9
						c0.6-1.5,0-2.9,0.2-3.9c0.1-0.8,0.4-1.6,0.8-2.4c4.6,0.9,9.4-0.1,13.3-2.7c-1.7,2.5-4.4,4.2-7.3,4.8c6.3,3.2,13.2,0.4,15.8-3.4
						c-0.5,1.8-0.5,3.8,0,5.6c0.6,1.9,1.8,3.6,3.3,4.8c-0.4,0.9-0.5,1.9-0.4,2.9C143.7,155.9,143.8,156.2,143.9,156.5z"/>
					<path class="st16" d="M132.7,148.7l3.6,2.3c0.6-1,0.3-2.3-0.6-3C134.7,147.4,133.4,147.7,132.7,148.7
						C132.7,148.7,132.7,148.7,132.7,148.7z"/>
					<path class="st21" d="M129.9,158.8c-1.2,0.2-2.3,0.3-3.5,0.2c-0.6,0-1,0.4-1,1c0,0.2,0.1,0.4,0.2,0.6c0.7,0.8,1.8,1.2,2.9,1.1
						c1.1,0,2.1-0.6,2.6-1.6c0.2-0.5-0.1-1.1-0.7-1.3C130.2,158.8,130.1,158.8,129.9,158.8z"/>
					<path class="st15" d="M127.3,161.4L127.3,161.4c0.6-1.4,2.2-2,3.6-1.6c0,0.1,0,0.1-0.1,0.2c-0.4,0.9-1.4,1.5-2.4,1.5
						C128,161.6,127.6,161.5,127.3,161.4z"/>
					<path class="st16" d="M119.4,146.9l4.3-0.5c-0.1-1.1-1.1-2-2.2-1.9c0,0-0.1,0-0.1,0C120.1,144.6,119.3,145.7,119.4,146.9z"/>
					<polygon class="st21" points="128.2,149.5 126.3,156.9 122.4,154.9 					"/>
					<path class="st16" d="M131.5,152.6c0,0.9,0.7,1.6,1.6,1.6s1.6-0.7,1.6-1.6c0-0.9-0.7-1.6-1.6-1.6S131.5,151.8,131.5,152.6
						L131.5,152.6z"/>
					<path class="st16" d="M119.9,150.2c0,0.9,0.7,1.6,1.6,1.6s1.6-0.7,1.6-1.6c0-0.9-0.7-1.6-1.6-1.6S119.9,149.3,119.9,150.2
						L119.9,150.2z"/>
					<path class="st21" d="M126.8,169c3.5,0.4,7.1-0.2,10.3-1.6c1.8-1,3.3-2.4,4.3-4.2c-0.6,1.7-1.6,3.2-2.9,4.5
						c-4.6,3.8-11.9,3.1-11.9,3.1L126.8,169z"/>
				</g>
			</g>
			<g id="freepik--man-arms--inject-8">
				<path class="st20" d="M145,241.6c-0.9,1.8-5.6-0.4-9.4,0.3c-3.1,0.4-6.3,0.4-9.4,0.1c-2.2-0.2-2.2,1.6-0.1,3.2
					c2.1,1.6,6.9,1.5,7.5,2s2.1,2.3-1.5,3.3s-8.2,2-9.8,4.1c-1.5,2.1,8.6,7.1,12.3,4.6s3.7-1.9,5.7-3.6c6.3-5.4,6.3-11.3,5.6-15.9
					L145,241.6z"/>
				<path class="st15" d="M83,235.9c5.3,3.2,16,7.6,23.4,11.2c3.6,1.5,6.5,3.3,10.3,4.1c2.5,0.4,6-1,8.3-1.8c4.8-1.4,9-1.3,13.9-2.7
					c2-0.6,1.6,2.5-0.3,4.2s-7.4,2-7.7,4.7c0.1,0.2,0.4,0.4,0.6,0.4c9.8,1.1,11-2.7,12.2-4c1.3,1,2.1,2.5,2.1,4.2
					c-0.4,1.2-1.4,1.5-1.9,2.6s0.1,1.7-0.8,2.5c-0.4,0.3-0.8,0.5-1.2,0.8c-0.9,0.6-1.4,1.5-1.6,2.6c-0.7,2-2.1,2.9-4.1,3.6
					c-3.5,1-7,1.6-10.6,1.7c-6.2-0.1-10.2-2.7-15.3-4.4c-3.5-1.2-30.8-8.8-37.6-11.4c-8.3-3.2-8.7-6.4-10.9-12.8
					c-3.4-10.2-5.7-16.8-7.7-23.7c-3-10.5-7.7-23.4,1.3-30c2.2-1.5,4.7-2.6,7.2-3.5c0,0,8.1,4.3,11.7,18.2
					C74.4,202.2,82.7,234.4,83,235.9z"/>
				<path class="st17" d="M62.8,183.7c-3.4,1-6.6,2.8-9.3,5.1c-1.2,1.1-5,6.2-3.2,15.5s7.1,25.8,7.1,25.8s2.8,1.6,11.8-0.4
					s11.3-5.5,11.3-5.5s-4.4-18-5.6-22.9S69.3,186.6,62.8,183.7z"/>
			</g>
			<g id="freepik--boy-arms--inject-8">
				<path class="st21" d="M78.6,179.7l-0.2-5.3c-1.5,0.2-3.5,0.7-6.7,4.6c-2.9,3.4-2.8,5.1-2.9,8c-0.2,2.6-0.7,4.4,0.3,4.4
					s1.6-1.3,1.6-2.3c0.1-1,0.4-2,0.7-3c0,0,0.2,3.2,1.2,4.2c1.2,1.2,2.6,2.3,4.2,3.1c1.3,0.6,1.8,0.5,2.1-0.3
					c0.7,0.5,1.4,1.7,2.1,2c0.7,0.2,1.5-0.2,1.7-1c0,0,0,0,0,0c0.7-0.2,1.3-0.9,1.2-1.6c0.1-1.4-1.4-3.2-2.1-4.3
					S78.6,179.7,78.6,179.7z"/>
				<path class="st20" d="M71,188.8c0.2-0.3,0.6-0.5,1-0.5c0.4,0,0.7,0,1.1,0c0.4,0,0.9,0.1,1.3,0.2l1.5,0.4
					c0.6,0.2,1.3,0.3,1.9,0.3c0.2,0,0.6,0,0.6-0.3c0-0.2-0.1-0.3-0.2-0.4c-0.3-0.2-0.7-0.3-1-0.4l-4.6-1.5c-0.5-0.2-1-0.4-1.2-0.8
					c-0.1-0.5,0.1-1.1,0.5-1.4c0.1-0.1,0.2-0.2,0.2-0.3c0-0.1,0-0.2,0.1-0.3c0.1-0.9,0.7-1.7,1.6-1.9c0,0,0.1,0,0.1,0
					c0,0,0-0.1,0-0.1c0-0.2,0.1-0.5,0.3-0.7c0.2-0.2,0.5-0.4,0.8-0.5c0.1,0,0.1,0,0.2-0.1c0.2-0.1,0.4-0.1,0.6-0.1
					c0.9-0.1,1.8-0.2,2.7-0.2c0.8,0,1.6,0.1,2.4,0.2c-0.5-0.3-0.8-0.9-0.8-1.4c0-0.8,0.8-0.4,1.5-0.5s2.4-0.1,3-0.1s1.2,0.4,2.5,1.1
					c1.2,0.6,2.4,1.3,3.5,2.1c0.4,0.4,1.2,1.7,2.3,3.4c0.9,1.3,1.6,1.6,4.5,2.3c5.1,1.2,19.6,3.4,19.6,3.4l17.2-7.4
					c0,0,8.2-7.1,15.1-6.3c7.6,4.9,5.2,15.9-4.4,19.5c-7,2.6-12.2,4.8-17.9,6.6c-7.9,2.4-8.8,2.9-13,1.6c-7.8-1.8-21.3-7.5-22.6-7.8
					c-0.4-0.1-0.8-0.1-1.2-0.1l-0.7-0.1c-0.1,0-0.2,0-0.3,0c-0.1,0-0.2,0-0.2,0c-0.2,0-0.4,0-0.6,0c-0.4,0-0.8-0.1-1.2-0.1
					c-0.8-0.1-1.6-0.3-2.3-0.5c-0.8-0.2-1.5-0.5-2.3-0.8l-0.5-0.2c-0.7-0.4-1.5-0.8-2.2-1.2s-1.5-0.7-2.3-1.1s-1.5-0.7-2.3-1
					s-1.6-0.6-2.3-0.9c-0.3-0.1-0.6-0.2-0.9-0.4c-0.1-0.1-0.3-0.1-0.4-0.2c-0.2-0.1-0.3-0.2-0.4-0.3c-0.1-0.1-0.2-0.2-0.3-0.4
					c0-0.1,0-0.1,0-0.2C70.8,189.3,70.9,189,71,188.8z"/>
				<path class="st21" d="M79.2,183.1c-0.8-0.2-1.6-0.4-2.3-0.6c-1-0.3-2-0.5-3-0.5l0,0c0,0,0.1,0,0.1,0c0,0,0-0.1,0-0.1
					c0-0.1,0-0.2,0.1-0.3c0.9,0,1.8,0.2,2.7,0.4c0.7,0.2,1.5,0.4,2.2,0.7c0.8,0.3,1.6,0.6,2.4,1c0,0,0.1,0.1,0,0.1
					C80.6,183.6,79.9,183.4,79.2,183.1z"/>
				<path class="st21" d="M75.9,184.8c-1.2-0.4-2.5-0.6-3.8-0.5c0,0,0.1-0.1,0.1-0.1c0-0.1,0-0.1,0-0.2c1.2-0.2,2.4-0.1,3.5,0.3
					c0.7,0.2,1.4,0.4,2.2,0.7c0.8,0.3,1.6,0.6,2.4,1c0,0,0.1,0.1,0,0.1c-0.7-0.2-1.4-0.5-2.1-0.7S76.7,185,75.9,184.8z"/>
				<path class="st21" d="M84.7,178.5c0.4,0,0.8,0.1,1.1,0.3l1,0.6c0.7,0.4,1.4,0.8,2.1,1.2c0.3,0.2,0.7,0.4,1,0.6
					c0.3,0.2,0.6,0.4,0.8,0.8c0.4,0.6,0.9,1.3,1.3,2c0.4,0.7,0.9,1.4,1.4,2c0.6,0.5,1.4,0.9,2.2,1c1.5,0.4,3.1,0.8,4.6,1.1
					c3.1,0.6,4.3,0.7,7.4,1.2s6.2,0.9,9.4,1.4l-9.3-1.6c-3.1-0.6-4.3-0.7-7.4-1.3c-1.6-0.3-3.1-0.6-4.6-1c-0.7-0.2-1.4-0.5-2-1.1
					c-0.5-0.6-1-1.2-1.4-1.9c-0.4-0.6-0.9-1.3-1.4-1.9c-0.1-0.2-0.3-0.3-0.4-0.4l-0.5-0.3c-0.3-0.2-0.7-0.4-1-0.6
					c-0.7-0.4-1.4-0.7-2.1-1.1l-1-0.6C85.6,178.6,85.2,178.5,84.7,178.5z"/>
				<path class="st21" d="M81.1,180.6c0,0,2,0.5,2.5,0.6c0.9,0.5,1.8,0.8,2.8,1.1c0.5,0.1,1-0.1,1.2-0.5c-0.6,0.2-1.2,0.2-1.8-0.1
					c-1.2-0.4-1.5-1.3-1.3-1.8c-0.4,0.2-0.4,1.1-0.4,1.1S81.8,180.3,81.1,180.6z"/>
				<path class="st17" d="M149.2,175.7c4.2,1.8,6,6.1,4.9,11.8s-5.8,7.9-8.7,9.4s-13.3,4.8-13.3,4.8c0.1-3.2-0.5-6.4-1.8-9.4
					c-2.1-4.6-4.3-5.5-4.3-5.5s3.6-1.9,7.7-4.1S143.8,173.8,149.2,175.7z"/>
			</g>
		</g>
	</g>
</g>
<g id="freepik--speech-bubble--inject-8_00000173126544061273845320000000068258156114941363_">
	<g id="freepik--speech-bubble--inject-8_00000101796224006500145650000009394953700329709214_">
		<g id="freepik--speech-bubble--inject-8">
			<path class="st2" d="M274.8,167.5c-0.1,6.3-2.5,12.3-6.9,16.8l-2.1,1.9c-10.5,8.8-26.1,7.5-34.9-3c-7.9-9.4-7.7-23.1,0.3-32.3
				l2-2c10-9.3,25.7-8.6,35,1.4C272.5,155.1,274.8,161.2,274.8,167.5L274.8,167.5z"/>
			<path class="st19" d="M250.2,140.4c-14.8-0.1-26.9,11.8-27,26.7c-0.1,13.1,9.3,24.4,22.2,26.6l2.9,7.8c0.3,0.8,1.2,1.2,2,0.9
				c0.4-0.2,0.7-0.5,0.9-0.9l3.1-7.8c14.6-2.4,24.6-16.1,22.3-30.8C274.5,150,263.3,140.4,250.2,140.4L250.2,140.4z M274.8,167.4
				c0,6.3-2.4,12.3-6.8,16.9l-2.1,1.9c-10.5,8.8-26.1,7.4-34.9-3c-7.8-9.3-7.7-22.9,0.2-32.1l2-2c10-9.3,25.7-8.6,35,1.4
				C272.6,155.1,274.9,161.2,274.8,167.4L274.8,167.4z"/>
		</g>
		<path id="freepik--Heart--inject-8" class="st0" d="M249.8,179.5c-15-8.2-16.1-16.9-11.7-21.1c4-3.7,11.1-1.2,11.9,4.2
			c0.9-5.4,8.1-7.8,12-4C266.3,163,265,171.6,249.8,179.5z"/>
	</g>
</g>
</svg>
